<?xml version="1.0" encoding="UTF-8"?>
<!DOCTYPE svg PUBLIC "-//W3C//DTD SVG 1.1//EN" "http://www.w3.org/Graphics/SVG/1.1/DTD/svg11.dtd">
<svg xml:lang="ja" lang="ja" xmlns="http://www.w3.org/2000/svg" xmlns:xlink="http://www.w3.org/1999/xlink" version="1.1" width="342px" height="139px" viewBox="-0.5 -0.5 342 139" content="&lt;mxfile host=&quot;Electron&quot; modified=&quot;2020-07-02T09:19:04.268Z&quot; agent=&quot;5.0 (Macintosh; Intel Mac OS X 10_15_5) AppleWebKit/537.36 (KHTML, like Gecko) draw.io/13.3.5 Chrome/83.0.4103.119 Electron/9.0.5 Safari/537.36&quot; version=&quot;13.3.5&quot; etag=&quot;SM4CCX6ULlyUnpauZPtH&quot; type=&quot;device&quot;&gt;&lt;diagram id=&quot;S4ArqOD8G-gEUdYz48lG&quot;&gt;7VlNb9s4EP01vhr6sGjr2DjJ7qEtgs0C7Z4WjMRI3FKiQNGx3V/foTTUd1ADsRPDax8SckiNyHkzj8/0zF9nuz8ULdIvMmZi5jnxbubfzjzP9R0X/hnLvraES1IbEsVjnNQaHvlPhkYHrRses7I3UUspNC/6xkjmOYt0z0aVktv+tGcp+m8taMJGhseIirH1G491ilaXhO3An4wnKb565S3rgYw2k2tDmdJYbmtTtTn/buavlZS6bmW7NRMmeDYudQTuXxltFqZYrg95wMNl6L3dG4thq9iVSqcykTkVd631RslNHjPjwIFeO+ezlAUYXTD+x7TeI250oyWYUp0JHGU7rr932v8YV/MAe7c79Fx19p3OA1M8Y5opa8u12n/vdmpPXmD7ra+qt+/2xt7iTyY3oJvLnNWWey4EjteRMuHpIyg3KkKTj7lIVcJs1i3GkLgN0FAhTMIi1B6mKCao5i999xRTNWnmtWhCAwGdBheX80LFBp2O0H5hSnNI7M/0iYkHWXLNZQ5DT1JrmcGumwQ1IYhpmTbAU8ETMzWCfZkgdhG2bj/hHG0yw/gqzHuzXWJ4Yc4EFKcy8+ZCJjz6N6GalZ22Sa+CKYqLkuYtOYMRnif4pn4yJoKWJbYjmfEI28Js74ZGP5Jq/loK4wsC4N9XH7M4reQP1hlxqk8zYgvdvPQZsmLKB2wr5hAOO4Z59CxzfU8zLkz+/Q1JVwIIX9kW/v4lM5rjFKwXgM0mmwkj281eK+1X8ggfIARTD0nWDQIPiqwybTus5SCpph3CIs7bs2/xkdRiKaNLCEfhluUZcYv/cdQSnA+4v8H27ZEnxw8zPvogOXhsK3bhDCp25c0XC1APwYp4Dlmt+h7rXEAnA+yaVR0EJ/n9SQEPgLwyAdymXLPHglbx2QKT91GiZVFrrme+M2gPmNVyYp9CG7I9CvF5wzA6I9oLxqQXvL0slqeM42unTufscMOqzrQ9MY8U0eVieJQsw4mjhEwcJG+P6eoSJeqHHSPheUnU8CpRZ1eJ2vAK8cdMfTKBam8TzkHEXIJCnaCW8OCMODqzuO75oHtyiep6H6ZRSRDOw/fQqHaPFypSSbCckFSnkanuATdDF6FTIajvpFKtiLoqmf+lklnaq//mG1LovOdlmxtcZkWvFoO4EneKJk9U0xPXIgRWFqyjWOpqUWSsIWGzuh9PxUr+kz5VE6piBtlQYtimantY0BmP40qeFOYYrTYU3MyC2wEyWACTJ1m/coe4lZAKdZUfCzbLuw1szmICtnCiGvxjVMPEPYwB7orWtBZxyIC8yNT1zuJUaK2m0LrW1qFoEat6jo8VdNvfomvN3v6i79/9Ag==&lt;/diagram&gt;&lt;/mxfile&gt;"><defs><style xmlns="http://www.w3.org/1999/xhtml" type="text/css">.MathJax_Preview {color: #888}&#xa;#MathJax_Message {position: fixed; left: 1px; bottom: 2px; background-color: #E6E6E6; border: 1px solid #959595; margin: 0px; padding: 2px 8px; z-index: 102; color: black; font-size: 80%; width: auto; white-space: nowrap}&#xa;#MathJax_MSIE_Frame {position: absolute; top: 0; left: 0; width: 0px; z-index: 101; border: 0px; margin: 0px; padding: 0px}&#xa;.MathJax_Error {color: #CC0000; font-style: italic}&#xa;</style><style xmlns="http://www.w3.org/1999/xhtml" type="text/css">.MathJax_Hover_Frame {border-radius: .25em; -webkit-border-radius: .25em; -moz-border-radius: .25em; -khtml-border-radius: .25em; box-shadow: 0px 0px 15px #83A; -webkit-box-shadow: 0px 0px 15px #83A; -moz-box-shadow: 0px 0px 15px #83A; -khtml-box-shadow: 0px 0px 15px #83A; border: 1px solid #A6D ! important; display: inline-block; position: absolute}&#xa;.MathJax_Menu_Button .MathJax_Hover_Arrow {position: absolute; cursor: pointer; display: inline-block; border: 2px solid #AAA; border-radius: 4px; -webkit-border-radius: 4px; -moz-border-radius: 4px; -khtml-border-radius: 4px; font-family: 'Courier New',Courier; font-size: 9px; color: #F0F0F0}&#xa;.MathJax_Menu_Button .MathJax_Hover_Arrow span {display: block; background-color: #AAA; border: 1px solid; border-radius: 3px; line-height: 0; padding: 4px}&#xa;.MathJax_Hover_Arrow:hover {color: white!important; border: 2px solid #CCC!important}&#xa;.MathJax_Hover_Arrow:hover span {background-color: #CCC!important}&#xa;</style><style xmlns="http://www.w3.org/1999/xhtml" type="text/css">.MathJax_SVG_Display {text-align: center; margin: 1em 0em; position: relative; display: block!important; text-indent: 0; max-width: none; max-height: none; min-width: 0; min-height: 0; width: 100%}&#xa;.MathJax_SVG .MJX-monospace {font-family: monospace}&#xa;.MathJax_SVG .MJX-sans-serif {font-family: sans-serif}&#xa;#MathJax_SVG_Tooltip {background-color: InfoBackground; color: InfoText; border: 1px solid black; box-shadow: 2px 2px 5px #AAAAAA; -webkit-box-shadow: 2px 2px 5px #AAAAAA; -moz-box-shadow: 2px 2px 5px #AAAAAA; -khtml-box-shadow: 2px 2px 5px #AAAAAA; padding: 3px 4px; z-index: 401; position: absolute; left: 0; top: 0; width: auto; height: auto; display: none}&#xa;.MathJax_SVG {display: inline; font-style: normal; font-weight: normal; line-height: normal; font-size: 100%; font-size-adjust: none; text-indent: 0; text-align: left; text-transform: none; letter-spacing: normal; word-spacing: normal; word-wrap: normal; white-space: nowrap; float: none; direction: ltr; max-width: none; max-height: none; min-width: 0; min-height: 0; border: 0; padding: 0; margin: 0}&#xa;.MathJax_SVG * {transition: none; -webkit-transition: none; -moz-transition: none; -ms-transition: none; -o-transition: none}&#xa;.MathJax_SVG &gt; div {display: inline-block}&#xa;.mjx-svg-href {fill: blue; stroke: blue}&#xa;.MathJax_SVG_Processing {visibility: hidden; position: absolute; top: 0; left: 0; width: 0; height: 0; overflow: hidden; display: block!important}&#xa;.MathJax_SVG_Processed {display: none!important}&#xa;.MathJax_SVG_test {font-style: normal; font-weight: normal; font-size: 100%; font-size-adjust: none; text-indent: 0; text-transform: none; letter-spacing: normal; word-spacing: normal; overflow: hidden; height: 1px}&#xa;.MathJax_SVG_test.mjx-test-display {display: table!important}&#xa;.MathJax_SVG_test.mjx-test-inline {display: inline!important; margin-right: -1px}&#xa;.MathJax_SVG_test.mjx-test-default {display: block!important; clear: both}&#xa;.MathJax_SVG_ex_box {display: inline-block!important; position: absolute; overflow: hidden; min-height: 0; max-height: none; padding: 0; border: 0; margin: 0; width: 1px; height: 60ex}&#xa;.mjx-test-inline .MathJax_SVG_left_box {display: inline-block; width: 0; float: left}&#xa;.mjx-test-inline .MathJax_SVG_right_box {display: inline-block; width: 0; float: right}&#xa;.mjx-test-display .MathJax_SVG_right_box {display: table-cell!important; width: 10000em!important; min-width: 0; max-width: none; padding: 0; border: 0; margin: 0}&#xa;</style></defs><g><path d="M 158 30.5 L 163 30.47 L 163 53.5" fill="none" stroke="#000000" stroke-miterlimit="10" pointer-events="stroke"/><path d="M 138 30.5 L 158 30.5 M 58 15.5 L 81 15.5 M 58 45.5 L 81 45.5" fill="none" stroke="#000000" stroke-miterlimit="10" pointer-events="all"/><path d="M 98 0.5 C 115.47 1.06 131.06 12.75 138 30.5 C 131.06 48.25 115.47 59.94 98 60.5 L 73 60.5 C 83.72 41.94 83.72 19.06 73 0.5 Z" fill="#ffffff" stroke="#000000" stroke-miterlimit="10" pointer-events="all"/><ellipse cx="140" cy="30.5" rx="2" ry="2" fill="#ffffff" stroke="#000000" pointer-events="all"/><path d="M 58 15.5 L 58 45.5" fill="none" stroke="#000000" stroke-miterlimit="10" pointer-events="stroke"/><path d="M 56 30.5 L 34.06 30.47 L 34 30.45" fill="none" stroke="#000000" stroke-miterlimit="10" pointer-events="stroke"/><ellipse cx="58.5" cy="30.5" rx="2.5" ry="2.5" fill="#000000" stroke="none" pointer-events="all"/><ellipse cx="141" cy="30.5" rx="3" ry="3" fill="#ffffff" stroke="#000000" pointer-events="all"/><path d="M 158 108 L 163 108 L 163 83.5" fill="none" stroke="#000000" stroke-miterlimit="10" pointer-events="stroke"/><path d="M 138 108 L 158 108 M 58 93 L 81 93 M 58 123 L 81 123" fill="none" stroke="#000000" stroke-miterlimit="10" pointer-events="all"/><path d="M 98 78 C 115.47 78.56 131.06 90.25 138 108 C 131.06 125.75 115.47 137.44 98 138 L 73 138 C 83.72 119.44 83.72 96.56 73 78 Z" fill="#ffffff" stroke="#000000" stroke-miterlimit="10" pointer-events="all"/><ellipse cx="140" cy="108" rx="2" ry="2" fill="#ffffff" stroke="#000000" pointer-events="all"/><path d="M 58 93 L 58 123" fill="none" stroke="#000000" stroke-miterlimit="10" pointer-events="stroke"/><path d="M 56 108 L 34.06 108 L 34 107.95" fill="none" stroke="#000000" stroke-miterlimit="10" pointer-events="stroke"/><ellipse cx="58.5" cy="108" rx="2.5" ry="2.5" fill="#000000" stroke="none" pointer-events="all"/><ellipse cx="141" cy="108" rx="3" ry="3" fill="#ffffff" stroke="#000000" pointer-events="all"/><path d="M 243 68.5 L 263 68.5 M 163 53.5 L 186 53.5 M 163 83.5 L 186 83.5" fill="none" stroke="#000000" stroke-miterlimit="10" pointer-events="all"/><path d="M 203 38.5 C 220.47 39.06 236.06 50.75 243 68.5 C 236.06 86.25 220.47 97.94 203 98.5 L 178 98.5 C 188.72 79.94 188.72 57.06 178 38.5 Z" fill="#ffffff" stroke="#000000" stroke-miterlimit="10" pointer-events="all"/><ellipse cx="245" cy="68.5" rx="2" ry="2" fill="#ffffff" stroke="#000000" pointer-events="all"/><ellipse cx="246" cy="68.5" rx="3" ry="3" fill="#ffffff" stroke="#000000" pointer-events="all"/><rect x="251" y="52.5" width="90" height="30" fill="none" stroke="none" pointer-events="all"/><g transform="translate(-0.5 -0.5)"><switch><foreignObject style="overflow: visible; text-align: left;" pointer-events="none" width="100%" height="100%" requiredFeatures="http://www.w3.org/TR/SVG11/feature#Extensibility"><div xmlns="http://www.w3.org/1999/xhtml" style="display: flex; align-items: unsafe center; justify-content: unsafe center; width: 1px; height: 1px; padding-top: 67px; margin-left: 296px;"><div style="box-sizing: border-box; font-size: 0; text-align: center; "><div style="display: inline-block; font-size: 19px; font-family: Helvetica; color: #000000; line-height: 1.2; pointer-events: all; white-space: nowrap; "><span class="MathJax_Preview" style=""></span><span class="MathJax_SVG" id="MathJax-Element-702-Frame" tabindex="0" style="font-size: 100%; display: inline-block;"><svg xmlns="http://www.w3.org/2000/svg" xmlns:xlink="http://www.w3.org/1999/xlink" width="4.371ex" height="1.821ex" viewBox="0 -522.1 1881.9 784.2" role="img" focusable="false" style="vertical-align: -0.609ex;"><g stroke="currentColor" fill="currentColor" stroke-width="0" transform="matrix(1 0 0 -1 0 0)"><path stroke-width="1" d="M52 289Q59 331 106 386T222 442Q257 442 286 424T329 379Q371 442 430 442Q467 442 494 420T522 361Q522 332 508 314T481 292T458 288Q439 288 427 299T415 328Q415 374 465 391Q454 404 425 404Q412 404 406 402Q368 386 350 336Q290 115 290 78Q290 50 306 38T341 26Q378 26 414 59T463 140Q466 150 469 151T485 153H489Q504 153 504 145Q504 144 502 134Q486 77 440 33T333 -11Q263 -11 227 52Q186 -10 133 -10H127Q78 -10 57 16T35 71Q35 103 54 123T99 143Q142 143 142 101Q142 81 130 66T107 46T94 41L91 40Q91 39 97 36T113 29T132 26Q168 26 194 71Q203 87 217 139T245 247T261 313Q266 340 266 352Q266 380 251 392T217 404Q177 404 142 372T93 290Q91 281 88 280T72 278H58Q52 284 52 289Z"/><g transform="translate(839,0)"><path stroke-width="1" d="M78 250Q78 274 95 292T138 310Q162 310 180 294T199 251Q199 226 182 208T139 190T96 207T78 250Z"/></g><g transform="translate(1384,0)"><path stroke-width="1" d="M21 287Q21 301 36 335T84 406T158 442Q199 442 224 419T250 355Q248 336 247 334Q247 331 231 288T198 191T182 105Q182 62 196 45T238 27Q261 27 281 38T312 61T339 94Q339 95 344 114T358 173T377 247Q415 397 419 404Q432 431 462 431Q475 431 483 424T494 412T496 403Q496 390 447 193T391 -23Q363 -106 294 -155T156 -205Q111 -205 77 -183T43 -117Q43 -95 50 -80T69 -58T89 -48T106 -45Q150 -45 150 -87Q150 -107 138 -122T115 -142T102 -147L99 -148Q101 -153 118 -160T152 -167H160Q177 -167 186 -165Q219 -156 247 -127T290 -65T313 -9T321 21L315 17Q309 13 296 6T270 -6Q250 -11 231 -11Q185 -11 150 11T104 82Q103 89 103 113Q103 170 138 262T173 379Q173 380 173 381Q173 390 173 393T169 400T158 404H154Q131 404 112 385T82 344T65 302T57 280Q55 278 41 278H27Q21 284 21 287Z"/></g></g></svg></span><script type="math/asciimath" id="MathJax-Element-702">x\cdot y</script></div></div></div></foreignObject><text x="296" y="73" fill="#000000" font-family="Helvetica" font-size="19px" text-anchor="middle">x\cdot y</text></switch></g><rect x="0" y="17.5" width="40" height="30" fill="none" stroke="none" pointer-events="all"/><g transform="translate(-0.5 -0.5)"><switch><foreignObject style="overflow: visible; text-align: left;" pointer-events="none" width="100%" height="100%" requiredFeatures="http://www.w3.org/TR/SVG11/feature#Extensibility"><div xmlns="http://www.w3.org/1999/xhtml" style="display: flex; align-items: unsafe center; justify-content: unsafe center; width: 1px; height: 1px; padding-top: 32px; margin-left: 20px;"><div style="box-sizing: border-box; font-size: 0; text-align: center; "><div style="display: inline-block; font-size: 19px; font-family: Helvetica; color: #000000; line-height: 1.2; pointer-events: all; white-space: nowrap; "><span class="MathJax_Preview" style=""></span><span class="MathJax_SVG" id="MathJax-Element-713-Frame" tabindex="0" style="font-size: 100%; display: inline-block;"><svg xmlns="http://www.w3.org/2000/svg" xmlns:xlink="http://www.w3.org/1999/xlink" width="1.33ex" height="1.419ex" viewBox="0 -522.1 572.5 610.8" role="img" focusable="false" style="vertical-align: -0.206ex;"><g stroke="currentColor" fill="currentColor" stroke-width="0" transform="matrix(1 0 0 -1 0 0)"><path stroke-width="1" d="M52 289Q59 331 106 386T222 442Q257 442 286 424T329 379Q371 442 430 442Q467 442 494 420T522 361Q522 332 508 314T481 292T458 288Q439 288 427 299T415 328Q415 374 465 391Q454 404 425 404Q412 404 406 402Q368 386 350 336Q290 115 290 78Q290 50 306 38T341 26Q378 26 414 59T463 140Q466 150 469 151T485 153H489Q504 153 504 145Q504 144 502 134Q486 77 440 33T333 -11Q263 -11 227 52Q186 -10 133 -10H127Q78 -10 57 16T35 71Q35 103 54 123T99 143Q142 143 142 101Q142 81 130 66T107 46T94 41L91 40Q91 39 97 36T113 29T132 26Q168 26 194 71Q203 87 217 139T245 247T261 313Q266 340 266 352Q266 380 251 392T217 404Q177 404 142 372T93 290Q91 281 88 280T72 278H58Q52 284 52 289Z"/></g></svg></span><script type="math/asciimath" id="MathJax-Element-713">x</script></div></div></div></foreignObject><text x="20" y="38" fill="#000000" font-family="Helvetica" font-size="19px" text-anchor="middle">x</text></switch></g><rect x="0" y="92" width="40" height="30" fill="none" stroke="none" pointer-events="all"/><g transform="translate(-0.5 -0.5)"><switch><foreignObject style="overflow: visible; text-align: left;" pointer-events="none" width="100%" height="100%" requiredFeatures="http://www.w3.org/TR/SVG11/feature#Extensibility"><div xmlns="http://www.w3.org/1999/xhtml" style="display: flex; align-items: unsafe center; justify-content: unsafe center; width: 1px; height: 1px; padding-top: 107px; margin-left: 20px;"><div style="box-sizing: border-box; font-size: 0; text-align: center; "><div style="display: inline-block; font-size: 19px; font-family: Helvetica; color: #000000; line-height: 1.2; pointer-events: all; white-space: nowrap; "><span class="MathJax_Preview" style=""></span><span class="MathJax_SVG" id="MathJax-Element-715-Frame" tabindex="0" style="font-size: 100%; display: inline-block;"><svg xmlns="http://www.w3.org/2000/svg" xmlns:xlink="http://www.w3.org/1999/xlink" width="1.155ex" height="1.821ex" viewBox="0 -522.1 497.5 784.2" role="img" focusable="false" style="vertical-align: -0.609ex;"><g stroke="currentColor" fill="currentColor" stroke-width="0" transform="matrix(1 0 0 -1 0 0)"><path stroke-width="1" d="M21 287Q21 301 36 335T84 406T158 442Q199 442 224 419T250 355Q248 336 247 334Q247 331 231 288T198 191T182 105Q182 62 196 45T238 27Q261 27 281 38T312 61T339 94Q339 95 344 114T358 173T377 247Q415 397 419 404Q432 431 462 431Q475 431 483 424T494 412T496 403Q496 390 447 193T391 -23Q363 -106 294 -155T156 -205Q111 -205 77 -183T43 -117Q43 -95 50 -80T69 -58T89 -48T106 -45Q150 -45 150 -87Q150 -107 138 -122T115 -142T102 -147L99 -148Q101 -153 118 -160T152 -167H160Q177 -167 186 -165Q219 -156 247 -127T290 -65T313 -9T321 21L315 17Q309 13 296 6T270 -6Q250 -11 231 -11Q185 -11 150 11T104 82Q103 89 103 113Q103 170 138 262T173 379Q173 380 173 381Q173 390 173 393T169 400T158 404H154Q131 404 112 385T82 344T65 302T57 280Q55 278 41 278H27Q21 284 21 287Z"/></g></svg></span><script type="math/asciimath" id="MathJax-Element-715">y</script></div></div></div></foreignObject><text x="20" y="113" fill="#000000" font-family="Helvetica" font-size="19px" text-anchor="middle">y</text></switch></g></g><switch><g requiredFeatures="http://www.w3.org/TR/SVG11/feature#Extensibility"/><a transform="translate(0,-5)" xlink:href="https://desk.draw.io/support/solutions/articles/16000042487" target="_blank"><text text-anchor="middle" font-size="10px" x="50%" y="100%">Viewer does not support full SVG 1.1</text></a></switch></svg>