<?xml version="1.0" encoding="UTF-8"?>
<svg xml:lang="ja" lang="ja" xmlns="http://www.w3.org/2000/svg" xmlns:xlink="http://www.w3.org/1999/xlink" width="568pt" height="95pt" viewBox="0 0 568 95" version="1.1">
<defs>
<g>
<symbol overflow="visible" id="glyph0-0">
<path style="stroke:none;" d="M 1.796875 -15.484375 L 1.796875 1.796875 L 16.203125 1.796875 L 16.203125 -15.484375 Z M 14.671875 -14.546875 L 9.015625 -7.578125 L 3.34375 -14.546875 Z M 15.265625 0.140625 L 9.609375 -6.828125 L 15.265625 -13.78125 Z M 3.359375 0.859375 L 9.015625 -6.078125 L 14.65625 0.859375 Z M 2.734375 0.15625 L 2.734375 -13.828125 L 8.40625 -6.828125 Z M 2.734375 0.15625 "/>
</symbol>
<symbol overflow="visible" id="glyph0-1">
<path style="stroke:none;" d="M 3.515625 -3.359375 C 3.515625 -2.125 3.46875 -0.390625 3.40625 1.09375 C 3.40625 1.28125 3.484375 1.328125 3.71875 1.328125 C 4 1.328125 4.40625 1.296875 4.5 1.265625 C 4.640625 1.21875 4.6875 1.15625 4.6875 1.015625 C 4.65625 -1.390625 4.65625 -1.390625 4.65625 -3.359375 L 4.65625 -6.34375 C 4.953125 -6.40625 5.078125 -6.5 5.078125 -6.59375 C 5.078125 -6.734375 4.953125 -6.765625 4.21875 -6.890625 L 4.03125 -6.9375 C 4.703125 -7.796875 5.046875 -8.296875 5.59375 -9.265625 L 5.65625 -9.265625 C 6.171875 -9.265625 6.359375 -9.328125 6.359375 -9.484375 C 6.359375 -9.640625 6.078125 -9.75 4.546875 -10.265625 C 4.15625 -9.015625 3.34375 -7.484375 2.21875 -5.8125 C 1.53125 -4.8125 1.28125 -4.484375 0.6875 -3.921875 L 0.921875 -3.75 C 1.734375 -4.34375 2.484375 -5.0625 3.515625 -6.28125 Z M 12.515625 -7.359375 L 7.234375 -7.359375 C 6.484375 -7.359375 6.015625 -7.390625 5.359375 -7.5 L 5.515625 -6.875 C 6.078125 -6.9375 6.609375 -6.953125 7.234375 -6.953125 L 12.515625 -6.953125 L 12.515625 -0.453125 C 12.515625 -0.265625 12.46875 -0.234375 12.28125 -0.234375 C 12.265625 -0.234375 12.234375 -0.234375 12.21875 -0.234375 C 10.890625 -0.234375 10.5 -0.25 8.984375 -0.328125 L 8.984375 0.015625 C 9.15625 0.03125 9.34375 0.046875 9.515625 0.046875 C 9.875 0.09375 10.078125 0.109375 10.09375 0.109375 C 10.578125 0.15625 10.96875 0.25 11.140625 0.359375 C 11.4375 0.515625 11.53125 0.734375 11.609375 1.3125 C 12.34375 1.171875 12.6875 1.0625 13.03125 0.875 C 13.578125 0.578125 13.71875 0.34375 13.734375 -0.234375 L 13.71875 -3.109375 L 13.71875 -6.953125 L 16.953125 -6.953125 C 17.03125 -6.953125 17.078125 -6.984375 17.078125 -7.03125 C 17.078125 -7.078125 17.0625 -7.125 17.03125 -7.1875 C 16.375 -7.765625 16.15625 -7.9375 15.4375 -8.484375 C 15.0625 -8.015625 14.953125 -7.859375 14.578125 -7.359375 L 13.71875 -7.359375 L 13.71875 -9.28125 C 14.109375 -9.390625 14.28125 -9.484375 14.28125 -9.625 C 14.28125 -9.78125 14.0625 -9.828125 13.265625 -9.921875 C 13.0625 -9.9375 12.78125 -9.953125 12.40625 -10.015625 C 12.46875 -9.390625 12.515625 -8.859375 12.515625 -7.984375 Z M 4.109375 -12.9375 C 4.359375 -13.390625 4.484375 -13.625 4.765625 -14.28125 C 5.359375 -14.328125 5.59375 -14.40625 5.59375 -14.578125 C 5.59375 -14.765625 5.3125 -14.84375 3.65625 -15.171875 C 3.515625 -14.53125 3.359375 -14.125 2.9375 -13.078125 C 2.234375 -11.46875 1.6875 -10.546875 0.75 -9.390625 L 1.03125 -9.234375 C 2.484375 -10.671875 3.15625 -11.453125 3.828125 -12.53125 L 4.984375 -12.53125 C 5.46875 -11.9375 5.640625 -11.578125 6 -10.46875 C 6.140625 -10.03125 6.171875 -9.96875 6.296875 -9.96875 C 6.609375 -9.96875 6.984375 -10.53125 6.984375 -10.9375 C 6.984375 -11.328125 6.796875 -11.515625 5.90625 -12.21875 C 5.8125 -12.296875 5.6875 -12.390625 5.515625 -12.53125 L 9.140625 -12.53125 C 9.203125 -12.53125 9.25 -12.578125 9.25 -12.625 C 9.25 -12.671875 9.21875 -12.71875 9.15625 -12.78125 C 8.671875 -13.28125 8.515625 -13.421875 7.96875 -13.96875 C 7.609375 -13.53125 7.484375 -13.40625 7.109375 -12.9375 Z M 10.859375 -12.9375 C 11.140625 -13.40625 11.265625 -13.65625 11.5625 -14.296875 C 12.109375 -14.328125 12.34375 -14.4375 12.34375 -14.59375 C 12.34375 -14.796875 11.984375 -14.90625 10.34375 -15.1875 C 10.015625 -13.375 9.3125 -11.734375 7.96875 -9.78125 L 8.265625 -9.609375 C 9.21875 -10.5625 9.828125 -11.34375 10.609375 -12.53125 L 11.59375 -12.53125 C 12.03125 -11.890625 12.359375 -11.25 12.578125 -10.625 C 12.71875 -10.203125 12.765625 -10.15625 12.921875 -10.15625 C 13.1875 -10.15625 13.53125 -10.640625 13.53125 -11.046875 C 13.53125 -11.375 13.0625 -11.84375 11.984375 -12.53125 L 16.890625 -12.53125 C 16.96875 -12.53125 17.046875 -12.5625 17.046875 -12.640625 C 17.046875 -12.65625 17.03125 -12.703125 16.984375 -12.765625 C 16.328125 -13.359375 16.125 -13.53125 15.421875 -14.09375 L 14.46875 -12.9375 Z M 6.875 -5.71875 C 7.78125 -4.84375 8.640625 -3.640625 9.3125 -2.296875 C 9.4375 -2.09375 9.5 -2.015625 9.625 -2.015625 C 9.921875 -2.015625 10.15625 -2.53125 10.15625 -3.21875 C 10.15625 -3.640625 10.015625 -3.875 9.484375 -4.3125 C 8.75 -4.96875 7.953125 -5.46875 7.078125 -5.875 Z M 6.875 -5.71875 "/>
</symbol>
<symbol overflow="visible" id="glyph0-2">
<path style="stroke:none;" d="M 5.734375 -7.5 C 4.71875 -4.96875 4.484375 -4.484375 3.5625 -2.96875 C 3.546875 -2.921875 3.53125 -2.875 3.53125 -2.84375 C 3.53125 -2.765625 3.59375 -2.71875 3.703125 -2.6875 C 3.859375 -2.625 4.375 -2.5625 4.53125 -2.5625 C 4.6875 -2.5625 4.78125 -2.625 4.90625 -2.828125 C 5.46875 -3.9375 5.65625 -4.28125 5.90625 -4.8125 L 12.65625 -4.8125 C 12.421875 -2.8125 11.875 -0.875 11.4375 -0.40625 C 11.28125 -0.25 10.96875 -0.15625 10.640625 -0.15625 C 10.4375 -0.15625 10.4375 -0.15625 10.328125 -0.15625 C 9.78125 -0.1875 8.25 -0.28125 7 -0.40625 L 6.953125 -0.140625 C 9.484375 0.34375 9.625 0.40625 9.859375 1.375 C 10.75 1.234375 11.0625 1.171875 11.46875 1.03125 C 12 0.828125 12.390625 0.5 12.65625 0.015625 C 13.125 -0.796875 13.515625 -2.234375 13.890625 -4.3125 C 14.515625 -4.59375 14.671875 -4.703125 14.671875 -4.828125 C 14.671875 -4.890625 14.640625 -4.953125 14.46875 -5.125 C 14.015625 -5.53125 13.859375 -5.65625 13.296875 -6.0625 C 12.984375 -5.703125 12.890625 -5.59375 12.5625 -5.21875 L 6.109375 -5.21875 C 6.421875 -5.921875 6.421875 -5.921875 7.109375 -7.5 L 17.1875 -7.5 C 17.3125 -7.5 17.4375 -7.578125 17.4375 -7.671875 C 17.4375 -7.703125 17.40625 -7.78125 17.359375 -7.84375 C 16.65625 -8.453125 16.4375 -8.640625 15.71875 -9.234375 C 15.1875 -8.671875 15.046875 -8.515625 14.546875 -7.921875 L 3.0625 -7.921875 C 2 -7.921875 1.53125 -7.953125 0.71875 -8.125 L 0.828125 -7.390625 C 1.46875 -7.484375 2.03125 -7.5 3.0625 -7.5 Z M 5.015625 -9.921875 L 12.65625 -9.921875 L 12.65625 -9.21875 C 12.671875 -9.015625 12.71875 -8.96875 12.9375 -8.96875 C 12.9375 -8.96875 12.984375 -8.96875 13 -8.96875 C 13.03125 -8.96875 13.140625 -8.96875 13.296875 -8.984375 C 13.75 -9 13.875 -9.078125 13.890625 -9.359375 C 13.84375 -11.171875 13.84375 -11.28125 13.84375 -12.453125 L 13.84375 -13.25 C 14.375 -13.5 14.46875 -13.546875 14.46875 -13.703125 C 14.46875 -13.78125 14.421875 -13.859375 14.296875 -13.984375 C 13.84375 -14.34375 13.703125 -14.46875 13.21875 -14.84375 C 12.875 -14.53125 12.765625 -14.421875 12.453125 -14.0625 L 5.234375 -14.0625 C 4.59375 -14.421875 4.375 -14.53125 3.78125 -14.84375 C 3.8125 -14.015625 3.828125 -12.8125 3.828125 -11.8125 C 3.828125 -11.015625 3.8125 -10.390625 3.78125 -9.03125 C 3.796875 -8.890625 3.859375 -8.84375 4.046875 -8.84375 C 4.8125 -8.84375 5 -8.90625 5.015625 -9.21875 Z M 5.015625 -13.640625 L 12.65625 -13.640625 L 12.65625 -10.328125 L 5.015625 -10.328125 Z M 5.015625 -13.640625 "/>
</symbol>
<symbol overflow="visible" id="glyph0-3">
<path style="stroke:none;" d="M 1.796875 -13.375 C 2.515625 -13.40625 2.796875 -13.421875 3.078125 -13.421875 L 8.03125 -13.421875 C 8.171875 -13.421875 8.265625 -13.46875 8.265625 -13.546875 C 8.265625 -13.578125 8.25 -13.640625 8.1875 -13.703125 C 7.59375 -14.28125 7.390625 -14.4375 6.765625 -14.9375 C 6.3125 -14.484375 6.171875 -14.34375 5.734375 -13.84375 L 3.09375 -13.84375 C 2.6875 -13.84375 2.296875 -13.875 1.671875 -13.984375 Z M 1.09375 -10.984375 C 1.796875 -11.015625 2.140625 -11.03125 2.609375 -11.03125 L 8.96875 -11.03125 C 9.109375 -11.03125 9.1875 -11.09375 9.1875 -11.15625 C 9.1875 -11.21875 9.140625 -11.265625 9.09375 -11.34375 C 8.515625 -11.890625 8.328125 -12.0625 7.6875 -12.59375 C 7.234375 -12.109375 7.109375 -11.96875 6.671875 -11.453125 L 2.609375 -11.453125 C 2.140625 -11.453125 1.625 -11.5 0.984375 -11.640625 Z M 1.8125 -8.53125 C 2.625 -8.59375 3.09375 -8.609375 3.1875 -8.609375 L 7.90625 -8.609375 C 8.015625 -8.609375 8.09375 -8.640625 8.09375 -8.71875 C 8.09375 -8.75 8.0625 -8.8125 8.03125 -8.875 C 7.453125 -9.453125 7.265625 -9.609375 6.625 -10.140625 C 6.3125 -9.78125 6.015625 -9.40625 5.671875 -9.015625 L 3.1875 -9.015625 C 2.828125 -9.015625 2.203125 -9.109375 1.703125 -9.21875 Z M 1.859375 -6.109375 C 2.515625 -6.171875 2.796875 -6.1875 3.078125 -6.1875 L 7.828125 -6.1875 C 8.015625 -6.1875 8.0625 -6.234375 8.0625 -6.296875 C 8.0625 -6.34375 8.03125 -6.390625 7.96875 -6.46875 C 7.359375 -6.984375 7.1875 -7.125 6.53125 -7.65625 C 6.109375 -7.21875 5.96875 -7.078125 5.5625 -6.609375 L 3.078125 -6.609375 C 2.8125 -6.609375 2.125 -6.671875 1.75 -6.765625 Z M 3.078125 0.21875 L 6.0625 0.21875 L 6.0625 0.78125 C 6.078125 0.9375 6.140625 0.96875 6.390625 0.96875 C 6.65625 0.96875 6.90625 0.9375 7.09375 0.859375 C 7.21875 0.8125 7.265625 0.734375 7.265625 0.5625 C 7.25 -0.015625 7.234375 -0.375 7.234375 -0.875 L 7.234375 -3.453125 C 7.59375 -3.6875 7.71875 -3.796875 7.71875 -3.90625 C 7.71875 -3.984375 7.6875 -4.046875 7.5625 -4.171875 C 7.15625 -4.5 7.015625 -4.59375 6.59375 -4.9375 C 6.296875 -4.609375 6.203125 -4.515625 5.953125 -4.171875 L 3.296875 -4.171875 C 2.703125 -4.578125 2.515625 -4.703125 1.875 -5.015625 C 1.890625 -4.6875 1.90625 -2.53125 1.90625 -1.578125 C 1.90625 -1.5 1.890625 -0.625 1.859375 1.015625 C 1.859375 1.203125 1.921875 1.28125 2.140625 1.28125 C 2.875 1.28125 3.046875 1.21875 3.078125 0.953125 Z M 3.078125 -3.765625 L 6.0625 -3.765625 L 6.0625 -0.203125 L 3.078125 -0.203125 Z M 9.25 -13.0625 C 9.796875 -13.15625 10.046875 -13.171875 10.734375 -13.171875 L 14.765625 -13.171875 L 14.765625 -8.0625 L 10.828125 -8.0625 C 10.15625 -8.53125 9.9375 -8.640625 9.234375 -9.015625 C 9.265625 -8.203125 9.28125 -7.84375 9.28125 -7.0625 L 9.28125 -3.125 C 9.28125 -2.53125 9.28125 -2.453125 9.265625 -0.546875 C 9.265625 0.046875 9.40625 0.3125 9.8125 0.484375 C 10.171875 0.640625 10.390625 0.671875 13.046875 0.671875 C 14.8125 0.671875 16.203125 0.625 16.609375 0.578125 C 17.203125 0.5 17.515625 0.3125 17.515625 0 C 17.515625 -0.234375 17.390625 -0.359375 17.046875 -0.453125 C 16.78125 -0.5 16.6875 -0.625 16.6875 -0.875 C 16.6875 -0.90625 16.6875 -0.9375 16.6875 -0.953125 L 16.921875 -4.484375 L 16.671875 -4.515625 C 15.953125 -1.84375 15.71875 -1.0625 15.5 -0.6875 C 15.328125 -0.375 15.140625 -0.359375 12.90625 -0.359375 C 11.71875 -0.359375 10.875 -0.375 10.734375 -0.4375 C 10.5625 -0.484375 10.515625 -0.578125 10.515625 -0.859375 L 10.515625 -7.65625 L 14.765625 -7.65625 L 14.765625 -6.609375 C 14.78125 -6.4375 14.84375 -6.375 15.03125 -6.375 C 15.046875 -6.375 15.0625 -6.375 15.078125 -6.375 C 15.125 -6.375 15.25 -6.390625 15.421875 -6.390625 C 15.9375 -6.40625 16.09375 -6.5 16.109375 -6.765625 C 16.078125 -7.78125 16.0625 -9.515625 16.0625 -11.46875 C 16.0625 -11.71875 16.0625 -12.125 16.078125 -12.8125 C 16.578125 -12.953125 16.765625 -13.046875 16.765625 -13.21875 C 16.765625 -13.265625 16.734375 -13.296875 16.59375 -13.46875 C 16.1875 -13.890625 16.03125 -14.046875 15.515625 -14.46875 C 15.109375 -14.109375 14.96875 -13.984375 14.578125 -13.59375 L 10.734375 -13.59375 C 10.09375 -13.59375 9.703125 -13.640625 9.109375 -13.765625 Z M 9.25 -13.0625 "/>
</symbol>
<symbol overflow="visible" id="glyph0-4">
<path style="stroke:none;" d="M 5.078125 -10.3125 C 5.578125 -11.34375 5.953125 -12.34375 6.265625 -13.421875 L 10.34375 -13.421875 C 10.40625 -13.421875 10.453125 -13.46875 10.453125 -13.515625 C 10.453125 -13.546875 10.421875 -13.625 10.375 -13.703125 C 9.78125 -14.3125 9.578125 -14.515625 8.921875 -15.109375 C 8.4375 -14.578125 8.296875 -14.40625 7.859375 -13.84375 L 3.296875 -13.84375 C 2.703125 -13.84375 1.8125 -13.90625 1.21875 -14 L 1.328125 -13.3125 C 1.859375 -13.390625 2.484375 -13.421875 3.1875 -13.421875 L 4.875 -13.421875 C 4.640625 -12.390625 4.390625 -11.59375 4 -10.578125 C 3.125 -8.4375 2.21875 -6.875 0.96875 -5.421875 L 1.171875 -5.21875 C 2.234375 -6.140625 2.75 -6.671875 3.5625 -7.796875 C 4 -7.375 4.25 -7.015625 4.40625 -6.59375 C 4.890625 -5.34375 4.890625 -5.34375 4.90625 -5.3125 C 4.984375 -5.0625 5.0625 -4.984375 5.1875 -4.984375 C 5.453125 -4.984375 5.71875 -5.578125 5.71875 -6.171875 C 5.71875 -6.515625 5.578125 -6.78125 5.25 -7.0625 C 4.890625 -7.375 4.296875 -7.734375 3.71875 -8.03125 C 4.171875 -8.6875 4.46875 -9.1875 4.859375 -9.90625 L 7.859375 -9.90625 C 7.34375 -7.671875 6.65625 -6.046875 5.515625 -4.140625 C 4.234375 -2.0625 2.9375 -0.6875 0.84375 0.75 L 1.015625 0.984375 C 1.703125 0.640625 2.015625 0.484375 2.453125 0.21875 C 3.671875 -0.5625 4.890625 -1.671875 5.921875 -2.9375 C 7.328125 -4.703125 8.203125 -6.5 9.109375 -9.4375 C 9.9375 -9.8125 9.9375 -9.8125 9.9375 -9.921875 C 9.9375 -9.96875 9.90625 -10.046875 9.8125 -10.140625 C 9.265625 -10.578125 9.109375 -10.703125 8.5 -11.09375 C 8.25 -10.765625 8.15625 -10.65625 7.859375 -10.3125 Z M 12.421875 -11.71875 L 12.40625 -12.59375 C 13.03125 -12.78125 13.234375 -12.890625 13.234375 -13.015625 C 13.234375 -13.109375 13.171875 -13.15625 13.03125 -13.1875 C 12.8125 -13.25 11.9375 -13.40625 11.203125 -13.53125 C 11.265625 -12.515625 11.28125 -11.625 11.28125 -8.671875 C 11.28125 -4.9375 11.265625 -3.71875 11.203125 -2.515625 C 11.21875 -2.359375 11.25 -2.328125 11.4375 -2.328125 C 11.71875 -2.328125 12.046875 -2.359375 12.234375 -2.390625 C 12.421875 -2.453125 12.484375 -2.5 12.515625 -2.625 C 12.4375 -3.984375 12.421875 -5.015625 12.421875 -7.859375 Z M 14.890625 -0.6875 C 14.890625 -0.5625 14.8125 -0.5 14.6875 -0.484375 C 13.1875 -0.515625 12.59375 -0.5625 11.09375 -0.671875 L 11.09375 -0.375 C 12.171875 -0.234375 12.921875 -0.046875 13.40625 0.15625 C 13.828125 0.34375 13.9375 0.5 14 1.078125 C 14.6875 0.96875 15.078125 0.84375 15.5 0.609375 C 15.96875 0.34375 16.09375 0.140625 16.125 -0.34375 C 16.09375 -1.46875 16.09375 -1.46875 16.09375 -2.859375 C 16.078125 -4.375 16.078125 -4.375 16.015625 -6.59375 L 16.015625 -14.015625 C 16.625 -14.203125 16.734375 -14.25 16.734375 -14.421875 C 16.734375 -14.59375 16.453125 -14.671875 14.703125 -14.890625 C 14.78125 -14.4375 14.796875 -14.046875 14.8125 -12.78125 Z M 14.890625 -0.6875 "/>
</symbol>
<symbol overflow="visible" id="glyph0-5">
<path style="stroke:none;" d="M 11.46875 -8.796875 L 11.46875 -10.546875 L 16.265625 -10.546875 C 16.359375 -10.546875 16.4375 -10.609375 16.4375 -10.671875 C 16.4375 -10.703125 16.421875 -10.75 16.359375 -10.796875 C 15.734375 -11.34375 15.53125 -11.5 14.875 -12.03125 C 14.46875 -11.578125 14.34375 -11.4375 13.96875 -10.96875 L 11.46875 -10.96875 L 11.46875 -12.75 L 17.140625 -12.75 C 17.1875 -12.75 17.25 -12.796875 17.25 -12.875 C 17.25 -12.90625 17.203125 -12.953125 17.140625 -13.015625 C 16.421875 -13.65625 16.203125 -13.84375 15.4375 -14.40625 C 15.015625 -13.875 14.875 -13.71875 14.4375 -13.15625 L 11.46875 -13.15625 L 11.46875 -14.34375 C 12 -14.515625 12.203125 -14.609375 12.203125 -14.78125 C 12.203125 -14.953125 11.953125 -15 10.21875 -15.171875 C 10.296875 -14.546875 10.3125 -14.0625 10.3125 -13.484375 L 10.3125 -13.15625 L 7.390625 -13.15625 C 6.875 -13.15625 6.203125 -13.234375 5.765625 -13.359375 L 5.90625 -12.625 C 6.390625 -12.703125 6.859375 -12.75 7.5 -12.75 L 10.3125 -12.75 L 10.3125 -10.96875 L 8.125 -10.96875 C 7.46875 -10.96875 7.125 -11 6.5 -11.140625 L 6.609375 -10.40625 C 7.015625 -10.5 7.59375 -10.546875 8.125 -10.546875 L 10.3125 -10.546875 L 10.3125 -8.796875 L 6.953125 -8.796875 C 6.140625 -8.796875 5.796875 -8.84375 5.109375 -8.96875 L 5.234375 -8.25 C 5.875 -8.375 6.140625 -8.390625 6.953125 -8.390625 L 17.515625 -8.390625 C 17.546875 -8.390625 17.609375 -8.4375 17.609375 -8.5 C 17.609375 -8.53125 17.5625 -8.59375 17.515625 -8.640625 C 16.78125 -9.265625 16.546875 -9.453125 15.75 -9.984375 C 15.3125 -9.5 15.171875 -9.34375 14.765625 -8.796875 Z M 13.953125 -2.390625 L 13.953125 -0.4375 C 13.953125 -0.3125 13.9375 -0.28125 13.8125 -0.25 C 12.328125 -0.265625 11.84375 -0.28125 10.4375 -0.390625 L 10.4375 -0.109375 C 11.796875 0.09375 12.21875 0.1875 12.5625 0.359375 C 12.953125 0.5625 13.125 0.78125 13.21875 1.234375 C 14.78125 0.875 15.109375 0.640625 15.171875 -0.125 C 15.140625 -2.0625 15.140625 -2.15625 15.140625 -2.8125 L 15.140625 -6.203125 C 15.609375 -6.484375 15.734375 -6.59375 15.734375 -6.71875 C 15.734375 -6.765625 15.703125 -6.828125 15.609375 -6.9375 C 15.140625 -7.25 15.140625 -7.25 14.484375 -7.6875 C 14.1875 -7.359375 14.09375 -7.25 13.8125 -6.9375 L 8.28125 -6.9375 C 7.703125 -7.296875 7.53125 -7.375 6.90625 -7.671875 C 6.9375 -6.953125 6.953125 -4.984375 6.953125 -3.53125 C 6.953125 -1.5 6.90625 -0.25 6.828125 1.234375 C 6.859375 1.390625 6.953125 1.421875 7.25 1.421875 C 7.8125 1.421875 8.046875 1.328125 8.125 1.09375 C 8.09375 0.671875 8.09375 0.375 8.09375 0.21875 L 8.09375 -1.328125 L 8.125 -2.390625 Z M 13.953125 -2.8125 L 8.125 -2.8125 L 8.125 -4.484375 L 13.953125 -4.484375 Z M 13.953125 -4.890625 L 8.125 -4.890625 L 8.125 -6.515625 L 13.953125 -6.515625 Z M 2.125 -12.03125 C 1.96875 -10.53125 1.578125 -9.609375 0.84375 -8.859375 C 0.640625 -8.65625 0.59375 -8.546875 0.59375 -8.390625 C 0.59375 -8.15625 0.6875 -7.796875 0.796875 -7.546875 C 0.90625 -7.328125 0.984375 -7.234375 1.15625 -7.234375 C 1.578125 -7.234375 1.96875 -7.828125 2.15625 -8.796875 C 2.375 -9.734375 2.40625 -10.234375 2.40625 -12.03125 Z M 4.28125 -9.546875 L 4.28125 -14.328125 C 4.78125 -14.421875 5.0625 -14.5625 5.0625 -14.734375 C 5.0625 -14.921875 5.0625 -14.921875 3.03125 -15.15625 C 3.078125 -14.484375 3.078125 -14.140625 3.078125 -8.53125 C 3.078125 -8.203125 3.046875 -2.828125 3.046875 -2.171875 C 3.03125 -0.390625 3.03125 -0.28125 2.9375 1.09375 C 2.953125 1.296875 3.03125 1.328125 3.40625 1.328125 C 3.65625 1.328125 3.921875 1.296875 4.09375 1.265625 C 4.234375 1.203125 4.265625 1.15625 4.28125 1.015625 Z M 4.6875 -12.03125 C 5 -11.40625 5.140625 -10.90625 5.25 -9.953125 C 5.3125 -9.46875 5.40625 -9.3125 5.578125 -9.3125 C 5.84375 -9.3125 6.28125 -9.875 6.28125 -10.265625 C 6.28125 -10.671875 5.875 -11.234375 4.859375 -12.15625 Z M 4.6875 -12.03125 "/>
</symbol>
<symbol overflow="visible" id="glyph0-6">
<path style="stroke:none;" d="M 5.515625 -5.71875 L 9.34375 -5.71875 C 9.390625 -5.71875 9.4375 -5.734375 9.4375 -5.78125 C 9.4375 -5.8125 9.40625 -5.84375 9.375 -5.90625 C 8.8125 -6.46875 8.65625 -6.625 8.078125 -7.15625 C 7.71875 -6.734375 7.609375 -6.59375 7.25 -6.140625 L 5.9375 -6.140625 C 6.609375 -6.875 6.90625 -7.25 7.578125 -8.171875 C 8.40625 -8.1875 8.515625 -8.21875 8.515625 -8.375 C 8.515625 -8.515625 8.421875 -8.546875 6.65625 -9.28125 C 6.515625 -8.375 6.109375 -7.15625 5.578125 -6.140625 L 1.84375 -6.140625 C 1.15625 -6.140625 0.78125 -6.171875 0.390625 -6.265625 L 0.5 -5.59375 C 0.953125 -5.703125 1.140625 -5.71875 1.84375 -5.71875 L 4.3125 -5.71875 L 4.3125 -3.28125 L 2.4375 -3.28125 C 1.734375 -3.28125 1.203125 -3.328125 0.828125 -3.421875 L 0.921875 -2.75 C 1.296875 -2.828125 1.859375 -2.859375 2.4375 -2.859375 L 4.3125 -2.859375 L 4.3125 -2.140625 C 4.3125 -1.78125 4.3125 -0.390625 4.296875 1.328125 C 4.3125 1.453125 4.390625 1.5 4.640625 1.5 C 5.296875 1.5 5.515625 1.421875 5.546875 1.1875 C 5.53125 0.75 5.53125 -0.359375 5.515625 -2.140625 L 5.515625 -2.859375 L 9.25 -2.859375 C 9.34375 -2.859375 9.40625 -2.890625 9.40625 -2.953125 C 9.40625 -2.984375 9.390625 -3.03125 9.34375 -3.078125 C 8.71875 -3.640625 8.515625 -3.796875 7.859375 -4.296875 C 7.484375 -3.875 7.375 -3.71875 7.03125 -3.28125 L 5.515625 -3.28125 Z M 10.796875 -8.0625 L 10.796875 -13.515625 L 15.296875 -13.515625 C 15.265625 -12.765625 15.203125 -12.15625 15.03125 -11 C 14.96875 -10.625 14.84375 -10.46875 14.5625 -10.46875 C 14.40625 -10.46875 12.703125 -10.609375 11.921875 -10.65625 L 11.890625 -10.34375 C 12.8125 -10.21875 13.15625 -10.140625 13.453125 -9.9375 C 13.75 -9.71875 13.875 -9.515625 13.9375 -9.109375 C 14.484375 -9.140625 14.734375 -9.203125 15.0625 -9.3125 C 15.640625 -9.515625 15.9375 -9.71875 16.03125 -10.046875 C 16.234375 -10.546875 16.390625 -11.75 16.53125 -13.296875 C 16.9375 -13.5 17.0625 -13.59375 17.0625 -13.71875 C 17.0625 -13.765625 17.015625 -13.84375 16.90625 -13.9375 C 16.421875 -14.328125 16.265625 -14.4375 15.765625 -14.796875 C 15.484375 -14.4375 15.390625 -14.328125 15.109375 -13.9375 L 10.984375 -13.9375 C 10.390625 -14.328125 10.203125 -14.4375 9.546875 -14.796875 C 9.609375 -13.8125 9.625 -13.34375 9.625 -10.203125 C 9.625 -3.828125 9.609375 -0.359375 9.59375 1.234375 C 9.609375 1.375 9.6875 1.40625 9.859375 1.40625 C 10.15625 1.40625 10.5625 1.375 10.671875 1.3125 C 10.765625 1.296875 10.78125 1.234375 10.796875 1.140625 L 10.796875 0.703125 C 11.625 0.28125 12.765625 -0.734375 13.703125 -1.890625 C 14.59375 -0.609375 15.375 0.125 16.765625 1.046875 C 16.96875 0.390625 17.28125 0.03125 17.875 -0.203125 L 17.875 -0.375 C 16.3125 -0.875 15.328125 -1.5 14.296875 -2.65625 C 15.234375 -4.03125 15.640625 -4.953125 16.421875 -7.359375 C 16.84375 -7.5625 16.953125 -7.65625 16.953125 -7.765625 C 16.953125 -7.8125 16.921875 -7.859375 16.828125 -7.953125 C 16.359375 -8.375 16.21875 -8.5 15.765625 -8.875 C 15.421875 -8.53125 15.3125 -8.421875 15.03125 -8.0625 Z M 11.5 -7.65625 C 11.6875 -6.046875 12.328125 -4.21875 13.234375 -2.625 C 12.40625 -1.28125 11.53125 -0.21875 10.796875 0.328125 L 10.796875 -7.65625 Z M 15.125 -7.65625 C 14.828125 -6.015625 14.4375 -4.84375 13.65625 -3.40625 C 12.765625 -4.6875 12.390625 -5.578125 11.859375 -7.65625 Z M 5.515625 -12.71875 L 5.515625 -14.375 C 5.9375 -14.453125 6.140625 -14.546875 6.140625 -14.703125 C 6.140625 -14.84375 5.9375 -14.90625 4.265625 -15.140625 C 4.296875 -14.5625 4.3125 -14.28125 4.3125 -13.65625 L 4.3125 -12.71875 L 2.625 -12.71875 C 2.09375 -12.71875 1.515625 -12.78125 1.171875 -12.859375 L 1.28125 -12.1875 C 1.609375 -12.265625 2.09375 -12.3125 2.625 -12.3125 L 4.3125 -12.3125 L 4.3125 -9.90625 L 1.84375 -9.90625 C 1.1875 -9.90625 0.84375 -9.9375 0.453125 -10.03125 L 0.546875 -9.359375 C 0.84375 -9.453125 1.296875 -9.484375 1.84375 -9.484375 L 9.34375 -9.484375 C 9.375 -9.484375 9.40625 -9.515625 9.40625 -9.5625 C 9.40625 -9.578125 9.375 -9.609375 9.34375 -9.671875 C 8.78125 -10.203125 8.609375 -10.375 8.015625 -10.875 C 7.65625 -10.453125 7.546875 -10.328125 7.1875 -9.90625 L 5.515625 -9.90625 L 5.515625 -12.3125 L 9.125 -12.3125 C 9.15625 -12.3125 9.203125 -12.328125 9.203125 -12.359375 C 9.203125 -12.390625 9.1875 -12.421875 9.15625 -12.4375 C 8.59375 -13.015625 8.40625 -13.171875 7.796875 -13.703125 C 7.390625 -13.296875 7.296875 -13.171875 6.9375 -12.71875 Z M 2 -9.234375 C 2.484375 -8.5625 2.71875 -7.96875 2.921875 -6.859375 C 2.984375 -6.5 3.09375 -6.34375 3.265625 -6.34375 C 3.5625 -6.34375 4.03125 -6.953125 4.03125 -7.359375 C 4.03125 -7.828125 3.296875 -8.609375 2.15625 -9.34375 Z M 2 -9.234375 "/>
</symbol>
<symbol overflow="visible" id="glyph0-7">
<path style="stroke:none;" d="M 12.703125 -5.78125 L 14.59375 -5.78125 L 14.59375 -5.140625 C 14.59375 -4.96875 14.65625 -4.90625 14.8125 -4.90625 C 15.5625 -4.90625 15.75 -4.96875 15.765625 -5.203125 C 15.734375 -7.703125 15.734375 -7.859375 15.734375 -8.921875 C 15.734375 -9.265625 15.734375 -9.796875 15.734375 -10.453125 C 16.078125 -10.671875 16.203125 -10.796875 16.203125 -10.90625 C 16.203125 -10.96875 16.140625 -11.03125 16.015625 -11.140625 C 15.625 -11.4375 15.484375 -11.515625 15.0625 -11.8125 C 14.765625 -11.484375 14.671875 -11.390625 14.40625 -11.046875 L 11.25 -11.046875 C 11.8125 -11.734375 11.859375 -11.828125 12.75 -13.3125 L 17.140625 -13.3125 C 17.28125 -13.3125 17.359375 -13.359375 17.359375 -13.40625 C 17.359375 -13.453125 17.328125 -13.5 17.28125 -13.546875 C 16.578125 -14.171875 16.34375 -14.34375 15.59375 -14.921875 C 15.109375 -14.4375 14.953125 -14.28125 14.46875 -13.734375 L 7.46875 -13.734375 C 6.890625 -14.125 6.71875 -14.234375 6.109375 -14.5625 C 6.15625 -13.578125 6.15625 -13.234375 6.15625 -12.0625 C 6.15625 -7.765625 6.046875 -5.828125 5.671875 -3.796875 C 5.3125 -1.8125 4.9375 -0.71875 4.0625 0.796875 L 4.265625 0.953125 C 4.8125 0.328125 5.015625 0.03125 5.296875 -0.390625 C 5.796875 -1.21875 6.234375 -2.25 6.53125 -3.28125 C 7.109375 -5.28125 7.359375 -7.71875 7.359375 -11.390625 C 7.359375 -11.890625 7.359375 -12.546875 7.34375 -13.3125 L 11.390625 -13.3125 C 11.296875 -12.671875 11.265625 -12.484375 11.015625 -11.5625 C 10.984375 -11.390625 10.984375 -11.390625 10.890625 -11.046875 L 9.703125 -11.046875 C 9.125 -11.390625 8.953125 -11.5 8.328125 -11.8125 C 8.390625 -10.9375 8.40625 -10.15625 8.40625 -8.59375 C 8.40625 -7.09375 8.40625 -6.703125 8.328125 -5.21875 C 8.328125 -5.015625 8.40625 -4.953125 8.59375 -4.953125 C 9.3125 -4.953125 9.5 -5 9.515625 -5.21875 L 9.515625 -5.78125 L 11.5625 -5.78125 L 11.5625 -0.625 C 11.5625 -0.34375 11.515625 -0.28125 11.265625 -0.28125 C 10.203125 -0.328125 10.09375 -0.328125 8.609375 -0.40625 L 8.59375 -0.109375 C 9.921875 0.078125 10.0625 0.109375 10.3125 0.203125 C 10.671875 0.34375 10.765625 0.515625 10.828125 1.109375 C 11.640625 0.96875 12.03125 0.828125 12.34375 0.578125 C 12.640625 0.359375 12.71875 0.1875 12.75 -0.28125 C 12.703125 -2.46875 12.703125 -2.46875 12.703125 -3.0625 Z M 9.515625 -8.6875 L 9.515625 -10.640625 L 14.59375 -10.640625 L 14.59375 -8.6875 Z M 14.59375 -8.28125 L 14.59375 -6.1875 L 9.515625 -6.1875 L 9.515625 -8.28125 Z M 1.84375 -14.515625 C 3.28125 -13.109375 3.59375 -12.71875 4.015625 -11.984375 C 4.140625 -11.765625 4.21875 -11.703125 4.359375 -11.703125 C 4.625 -11.703125 4.859375 -12.171875 4.859375 -12.6875 C 4.859375 -13.140625 4.703125 -13.34375 4.0625 -13.71875 C 3.484375 -14.0625 2.921875 -14.3125 1.984375 -14.671875 Z M 0.71875 -10.625 C 1.625 -9.75 2.171875 -9.078125 2.6875 -8.171875 C 2.8125 -7.9375 2.890625 -7.84375 3.03125 -7.84375 C 3.296875 -7.84375 3.5625 -8.40625 3.5625 -8.921875 C 3.5625 -9.328125 3.40625 -9.5625 2.9375 -9.84375 C 2.5625 -10.078125 1.8125 -10.40625 0.859375 -10.78125 Z M 6.375 0.71875 C 8.03125 -0.828125 8.5625 -1.5 9.796875 -3.484375 C 10.234375 -3.53125 10.46875 -3.625 10.46875 -3.78125 C 10.46875 -3.921875 10.375 -3.953125 8.75 -4.484375 C 8.328125 -2.75 7.484375 -1.09375 6.171875 0.515625 Z M 13.578125 -4.28125 C 14.671875 -2.796875 15.28125 -1.703125 15.890625 -0.15625 C 16 0.09375 16.109375 0.21875 16.234375 0.21875 C 16.484375 0.21875 16.828125 -0.5625 16.828125 -1.171875 C 16.828125 -1.578125 16.65625 -1.9375 16.25 -2.34375 C 15.53125 -3.078125 14.78125 -3.703125 13.734375 -4.453125 Z M 0.875 -3.984375 C 2.015625 -3.515625 2.140625 -3.3125 2.140625 -2.109375 C 2.140625 -1.578125 2.125 -1.34375 1.9375 -0.21875 C 1.90625 0.046875 1.875 0.390625 1.875 0.484375 C 1.875 0.78125 2.046875 0.984375 2.28125 0.984375 C 2.890625 0.984375 3.546875 0.21875 3.546875 -0.5 C 3.546875 -0.859375 3.484375 -1.140625 3.296875 -1.890625 C 3.109375 -2.625 3.078125 -2.765625 3.078125 -3.03125 C 3.078125 -3.3125 3.09375 -3.34375 3.3125 -3.984375 L 5.6875 -11.296875 L 5.4375 -11.4375 C 5.078125 -10.65625 5.078125 -10.65625 4.28125 -8.796875 C 3.53125 -7.0625 3.09375 -6.078125 2.609375 -5.046875 C 2.21875 -4.1875 2.125 -4.09375 1.84375 -4.09375 C 1.671875 -4.09375 1.421875 -4.140625 0.953125 -4.25 Z M 0.875 -3.984375 "/>
</symbol>
<symbol overflow="visible" id="glyph1-0">
<path style="stroke:none;" d="M -0.171875 0 L -0.171875 -11.75 L 13.8125 -11.75 L 13.8125 0 Z M 12.1875 -1.625 L 12.1875 -10.125 L 1.453125 -10.125 L 1.453125 -1.625 Z M 12.1875 -1.625 "/>
</symbol>
<symbol overflow="visible" id="glyph1-1">
<path style="stroke:none;" d="M 8.28125 -11.96875 C 8.8125 -11.96875 9.378906 -11.894531 9.984375 -11.75 C 10.597656 -11.613281 10.96875 -11.546875 11.09375 -11.546875 C 11.3125 -11.546875 11.460938 -11.582031 11.546875 -11.65625 C 11.640625 -11.726562 11.710938 -11.828125 11.765625 -11.953125 L 12.140625 -11.953125 L 11.484375 -8.375 L 11.15625 -8.40625 C 11.09375 -9.113281 10.9375 -9.6875 10.6875 -10.125 C 10.226562 -10.925781 9.460938 -11.328125 8.390625 -11.328125 C 6.753906 -11.328125 5.40625 -10.507812 4.34375 -8.875 C 3.414062 -7.445312 2.953125 -5.898438 2.953125 -4.234375 C 2.953125 -2.992188 3.234375 -2.054688 3.796875 -1.421875 C 4.359375 -0.796875 5.082031 -0.484375 5.96875 -0.484375 C 6.882812 -0.484375 7.722656 -0.707031 8.484375 -1.15625 C 8.929688 -1.425781 9.519531 -1.910156 10.25 -2.609375 L 10.53125 -2.34375 C 9.875 -1.507812 9.128906 -0.851562 8.296875 -0.375 C 7.472656 0.09375 6.566406 0.328125 5.578125 0.328125 C 4.078125 0.328125 2.925781 -0.144531 2.125 -1.09375 C 1.320312 -2.039062 0.921875 -3.144531 0.921875 -4.40625 C 0.921875 -6.226562 1.585938 -7.90625 2.921875 -9.4375 C 4.398438 -11.125 6.1875 -11.96875 8.28125 -11.96875 Z M 8.28125 -11.96875 "/>
</symbol>
<symbol overflow="visible" id="glyph2-0">
<path style="stroke:none;" d="M 8.59375 -11.375 L 8.59375 0 L 0.390625 0 L 0.390625 -11.375 Z M 7.828125 -0.71875 L 7.828125 -10.65625 L 1.140625 -10.65625 L 1.140625 -0.71875 Z M 6.734375 -7.515625 C 6.734375 -7.171875 6.679688 -6.863281 6.578125 -6.59375 C 6.484375 -6.320312 6.34375 -6.09375 6.15625 -5.90625 C 5.96875 -5.726562 5.75 -5.582031 5.5 -5.46875 C 5.25 -5.363281 4.972656 -5.304688 4.671875 -5.296875 L 4.625 -3.953125 C 4.625 -3.898438 4.582031 -3.859375 4.5 -3.828125 C 4.414062 -3.804688 4.296875 -3.796875 4.140625 -3.796875 C 4.054688 -3.796875 3.984375 -3.796875 3.921875 -3.796875 C 3.859375 -3.804688 3.804688 -3.816406 3.765625 -3.828125 C 3.734375 -3.835938 3.707031 -3.851562 3.6875 -3.875 C 3.675781 -3.894531 3.671875 -3.921875 3.671875 -3.953125 L 3.625 -5.578125 C 3.613281 -5.753906 3.644531 -5.875 3.71875 -5.9375 C 3.800781 -6.007812 3.914062 -6.046875 4.0625 -6.046875 L 4.21875 -6.046875 C 4.476562 -6.046875 4.695312 -6.082031 4.875 -6.15625 C 5.050781 -6.226562 5.191406 -6.328125 5.296875 -6.453125 C 5.410156 -6.578125 5.488281 -6.722656 5.53125 -6.890625 C 5.582031 -7.066406 5.609375 -7.25 5.609375 -7.4375 C 5.609375 -7.875 5.484375 -8.21875 5.234375 -8.46875 C 4.992188 -8.71875 4.609375 -8.84375 4.078125 -8.84375 C 3.859375 -8.84375 3.660156 -8.816406 3.484375 -8.765625 C 3.304688 -8.722656 3.148438 -8.675781 3.015625 -8.625 C 2.890625 -8.570312 2.78125 -8.519531 2.6875 -8.46875 C 2.601562 -8.425781 2.539062 -8.40625 2.5 -8.40625 C 2.488281 -8.40625 2.472656 -8.410156 2.453125 -8.421875 C 2.429688 -8.429688 2.410156 -8.453125 2.390625 -8.484375 C 2.367188 -8.515625 2.351562 -8.554688 2.34375 -8.609375 C 2.34375 -8.671875 2.34375 -8.75 2.34375 -8.84375 C 2.34375 -8.9375 2.347656 -9.015625 2.359375 -9.078125 C 2.367188 -9.148438 2.398438 -9.207031 2.453125 -9.25 C 2.492188 -9.289062 2.570312 -9.335938 2.6875 -9.390625 C 2.800781 -9.441406 2.9375 -9.492188 3.09375 -9.546875 C 3.257812 -9.597656 3.4375 -9.640625 3.625 -9.671875 C 3.820312 -9.710938 4.023438 -9.734375 4.234375 -9.734375 C 4.671875 -9.734375 5.046875 -9.671875 5.359375 -9.546875 C 5.679688 -9.429688 5.941406 -9.273438 6.140625 -9.078125 C 6.335938 -8.878906 6.484375 -8.644531 6.578125 -8.375 C 6.679688 -8.101562 6.734375 -7.816406 6.734375 -7.515625 Z M 4.828125 -2.40625 C 4.828125 -2.28125 4.816406 -2.175781 4.796875 -2.09375 C 4.773438 -2.007812 4.738281 -1.941406 4.6875 -1.890625 C 4.632812 -1.835938 4.566406 -1.796875 4.484375 -1.765625 C 4.398438 -1.742188 4.296875 -1.734375 4.171875 -1.734375 C 4.046875 -1.734375 3.941406 -1.742188 3.859375 -1.765625 C 3.773438 -1.796875 3.703125 -1.835938 3.640625 -1.890625 C 3.585938 -1.941406 3.550781 -2.007812 3.53125 -2.09375 C 3.507812 -2.175781 3.5 -2.28125 3.5 -2.40625 C 3.5 -2.519531 3.507812 -2.617188 3.53125 -2.703125 C 3.550781 -2.796875 3.585938 -2.867188 3.640625 -2.921875 C 3.703125 -2.972656 3.773438 -3.007812 3.859375 -3.03125 C 3.941406 -3.050781 4.046875 -3.0625 4.171875 -3.0625 C 4.296875 -3.0625 4.398438 -3.050781 4.484375 -3.03125 C 4.566406 -3.007812 4.632812 -2.972656 4.6875 -2.921875 C 4.738281 -2.867188 4.773438 -2.796875 4.796875 -2.703125 C 4.816406 -2.617188 4.828125 -2.519531 4.828125 -2.40625 Z M 0 3.484375 Z M 0 3.484375 "/>
</symbol>
<symbol overflow="visible" id="glyph2-1">
<path style="stroke:none;" d="M 10.03125 -0.53125 C 10.070312 -0.40625 10.09375 -0.300781 10.09375 -0.21875 C 10.101562 -0.144531 10.082031 -0.0859375 10.03125 -0.046875 C 9.988281 -0.00390625 9.910156 0.0195312 9.796875 0.03125 C 9.691406 0.0390625 9.550781 0.046875 9.375 0.046875 C 9.1875 0.046875 9.035156 0.0390625 8.921875 0.03125 C 8.816406 0.03125 8.738281 0.0195312 8.6875 0 C 8.632812 -0.0195312 8.59375 -0.046875 8.5625 -0.078125 C 8.539062 -0.117188 8.515625 -0.164062 8.484375 -0.21875 L 7.515625 -2.984375 L 2.78125 -2.984375 L 1.859375 -0.25 C 1.835938 -0.195312 1.8125 -0.148438 1.78125 -0.109375 C 1.75 -0.078125 1.707031 -0.046875 1.65625 -0.015625 C 1.601562 0.00390625 1.523438 0.0195312 1.421875 0.03125 C 1.316406 0.0390625 1.179688 0.046875 1.015625 0.046875 C 0.847656 0.046875 0.707031 0.0390625 0.59375 0.03125 C 0.488281 0.0195312 0.414062 -0.00390625 0.375 -0.046875 C 0.332031 -0.0859375 0.3125 -0.148438 0.3125 -0.234375 C 0.3125 -0.316406 0.335938 -0.421875 0.390625 -0.546875 L 4.203125 -11.109375 C 4.222656 -11.171875 4.25 -11.222656 4.28125 -11.265625 C 4.320312 -11.304688 4.378906 -11.335938 4.453125 -11.359375 C 4.535156 -11.390625 4.628906 -11.40625 4.734375 -11.40625 C 4.847656 -11.414062 4.992188 -11.421875 5.171875 -11.421875 C 5.359375 -11.421875 5.515625 -11.414062 5.640625 -11.40625 C 5.765625 -11.40625 5.863281 -11.390625 5.9375 -11.359375 C 6.019531 -11.335938 6.078125 -11.304688 6.109375 -11.265625 C 6.148438 -11.222656 6.1875 -11.164062 6.21875 -11.09375 Z M 5.140625 -9.859375 L 5.125 -9.859375 L 3.171875 -4.1875 L 7.125 -4.1875 Z M 5.140625 -9.859375 "/>
</symbol>
<symbol overflow="visible" id="glyph2-2">
<path style="stroke:none;" d="M 9.109375 -1.609375 C 9.109375 -1.515625 9.101562 -1.429688 9.09375 -1.359375 C 9.09375 -1.285156 9.082031 -1.222656 9.0625 -1.171875 C 9.050781 -1.117188 9.03125 -1.070312 9 -1.03125 C 8.976562 -0.988281 8.9375 -0.9375 8.875 -0.875 C 8.820312 -0.820312 8.703125 -0.734375 8.515625 -0.609375 C 8.328125 -0.492188 8.09375 -0.378906 7.8125 -0.265625 C 7.539062 -0.148438 7.222656 -0.0546875 6.859375 0.015625 C 6.492188 0.0976562 6.097656 0.140625 5.671875 0.140625 C 4.941406 0.140625 4.273438 0.0195312 3.671875 -0.21875 C 3.078125 -0.46875 2.570312 -0.832031 2.15625 -1.3125 C 1.738281 -1.800781 1.414062 -2.394531 1.1875 -3.09375 C 0.96875 -3.800781 0.859375 -4.613281 0.859375 -5.53125 C 0.859375 -6.476562 0.976562 -7.320312 1.21875 -8.0625 C 1.457031 -8.800781 1.796875 -9.425781 2.234375 -9.9375 C 2.679688 -10.445312 3.207031 -10.835938 3.8125 -11.109375 C 4.425781 -11.378906 5.109375 -11.515625 5.859375 -11.515625 C 6.179688 -11.515625 6.5 -11.484375 6.8125 -11.421875 C 7.125 -11.359375 7.410156 -11.28125 7.671875 -11.1875 C 7.929688 -11.09375 8.164062 -10.984375 8.375 -10.859375 C 8.582031 -10.734375 8.722656 -10.628906 8.796875 -10.546875 C 8.878906 -10.472656 8.929688 -10.414062 8.953125 -10.375 C 8.972656 -10.332031 8.988281 -10.285156 9 -10.234375 C 9.019531 -10.179688 9.035156 -10.113281 9.046875 -10.03125 C 9.054688 -9.957031 9.0625 -9.867188 9.0625 -9.765625 C 9.0625 -9.648438 9.054688 -9.550781 9.046875 -9.46875 C 9.035156 -9.382812 9.015625 -9.3125 8.984375 -9.25 C 8.960938 -9.195312 8.9375 -9.15625 8.90625 -9.125 C 8.875 -9.101562 8.835938 -9.09375 8.796875 -9.09375 C 8.710938 -9.09375 8.597656 -9.148438 8.453125 -9.265625 C 8.304688 -9.378906 8.113281 -9.503906 7.875 -9.640625 C 7.644531 -9.785156 7.363281 -9.914062 7.03125 -10.03125 C 6.707031 -10.144531 6.3125 -10.203125 5.84375 -10.203125 C 5.34375 -10.203125 4.882812 -10.097656 4.46875 -9.890625 C 4.050781 -9.691406 3.695312 -9.394531 3.40625 -9 C 3.113281 -8.601562 2.882812 -8.125 2.71875 -7.5625 C 2.5625 -7 2.484375 -6.351562 2.484375 -5.625 C 2.484375 -4.90625 2.5625 -4.269531 2.71875 -3.71875 C 2.875 -3.164062 3.097656 -2.703125 3.390625 -2.328125 C 3.679688 -1.953125 4.035156 -1.671875 4.453125 -1.484375 C 4.878906 -1.296875 5.359375 -1.203125 5.890625 -1.203125 C 6.335938 -1.203125 6.726562 -1.253906 7.0625 -1.359375 C 7.40625 -1.472656 7.691406 -1.597656 7.921875 -1.734375 C 8.160156 -1.867188 8.359375 -1.992188 8.515625 -2.109375 C 8.671875 -2.222656 8.789062 -2.28125 8.875 -2.28125 C 8.914062 -2.28125 8.953125 -2.269531 8.984375 -2.25 C 9.015625 -2.226562 9.035156 -2.191406 9.046875 -2.140625 C 9.066406 -2.097656 9.082031 -2.03125 9.09375 -1.9375 C 9.101562 -1.851562 9.109375 -1.742188 9.109375 -1.609375 Z M 9.109375 -1.609375 "/>
</symbol>
<symbol overflow="visible" id="glyph2-3">
<path style="stroke:none;" d="M 10.0625 -9.828125 C 10.0625 -9.710938 10.050781 -9.613281 10.03125 -9.53125 C 10.019531 -9.445312 10.003906 -9.375 9.984375 -9.3125 C 9.960938 -9.257812 9.929688 -9.222656 9.890625 -9.203125 C 9.859375 -9.179688 9.820312 -9.171875 9.78125 -9.171875 C 9.707031 -9.171875 9.585938 -9.222656 9.421875 -9.328125 C 9.265625 -9.441406 9.046875 -9.566406 8.765625 -9.703125 C 8.492188 -9.835938 8.164062 -9.957031 7.78125 -10.0625 C 7.394531 -10.175781 6.941406 -10.234375 6.421875 -10.234375 C 5.785156 -10.234375 5.21875 -10.117188 4.71875 -9.890625 C 4.226562 -9.660156 3.804688 -9.34375 3.453125 -8.9375 C 3.109375 -8.539062 2.84375 -8.0625 2.65625 -7.5 C 2.476562 -6.945312 2.390625 -6.347656 2.390625 -5.703125 C 2.390625 -4.972656 2.488281 -4.328125 2.6875 -3.765625 C 2.894531 -3.203125 3.175781 -2.726562 3.53125 -2.34375 C 3.882812 -1.957031 4.3125 -1.660156 4.8125 -1.453125 C 5.3125 -1.253906 5.851562 -1.15625 6.4375 -1.15625 C 6.789062 -1.15625 7.144531 -1.195312 7.5 -1.28125 C 7.863281 -1.375 8.203125 -1.503906 8.515625 -1.671875 L 8.515625 -4.984375 L 5.875 -4.984375 C 5.78125 -4.984375 5.707031 -5.03125 5.65625 -5.125 C 5.601562 -5.226562 5.578125 -5.382812 5.578125 -5.59375 C 5.578125 -5.707031 5.582031 -5.800781 5.59375 -5.875 C 5.601562 -5.957031 5.625 -6.023438 5.65625 -6.078125 C 5.6875 -6.128906 5.71875 -6.164062 5.75 -6.1875 C 5.78125 -6.207031 5.820312 -6.21875 5.875 -6.21875 L 9.5 -6.21875 C 9.5625 -6.21875 9.625 -6.207031 9.6875 -6.1875 C 9.75 -6.164062 9.804688 -6.128906 9.859375 -6.078125 C 9.910156 -6.035156 9.953125 -5.972656 9.984375 -5.890625 C 10.015625 -5.804688 10.03125 -5.710938 10.03125 -5.609375 L 10.03125 -1.28125 C 10.03125 -1.125 10.003906 -0.988281 9.953125 -0.875 C 9.898438 -0.769531 9.785156 -0.671875 9.609375 -0.578125 C 9.441406 -0.492188 9.222656 -0.398438 8.953125 -0.296875 C 8.679688 -0.203125 8.398438 -0.117188 8.109375 -0.046875 C 7.828125 0.015625 7.539062 0.0625 7.25 0.09375 C 6.957031 0.132812 6.664062 0.15625 6.375 0.15625 C 5.5 0.15625 4.710938 0.0195312 4.015625 -0.25 C 3.328125 -0.519531 2.742188 -0.90625 2.265625 -1.40625 C 1.796875 -1.914062 1.429688 -2.519531 1.171875 -3.21875 C 0.921875 -3.925781 0.796875 -4.710938 0.796875 -5.578125 C 0.796875 -6.484375 0.929688 -7.300781 1.203125 -8.03125 C 1.484375 -8.757812 1.867188 -9.378906 2.359375 -9.890625 C 2.859375 -10.410156 3.453125 -10.8125 4.140625 -11.09375 C 4.835938 -11.382812 5.609375 -11.53125 6.453125 -11.53125 C 6.890625 -11.53125 7.296875 -11.488281 7.671875 -11.40625 C 8.054688 -11.332031 8.394531 -11.242188 8.6875 -11.140625 C 8.976562 -11.046875 9.222656 -10.9375 9.421875 -10.8125 C 9.628906 -10.695312 9.769531 -10.597656 9.84375 -10.515625 C 9.925781 -10.441406 9.984375 -10.351562 10.015625 -10.25 C 10.046875 -10.15625 10.0625 -10.015625 10.0625 -9.828125 Z M 10.0625 -9.828125 "/>
</symbol>
<symbol overflow="visible" id="glyph2-4">
<path style="stroke:none;" d="M 10.0625 -4.203125 C 10.0625 -3.515625 9.957031 -2.894531 9.75 -2.34375 C 9.550781 -1.800781 9.265625 -1.34375 8.890625 -0.96875 C 8.515625 -0.59375 8.054688 -0.304688 7.515625 -0.109375 C 6.984375 0.078125 6.375 0.171875 5.6875 0.171875 C 5.0625 0.171875 4.488281 0.0820312 3.96875 -0.09375 C 3.457031 -0.28125 3.015625 -0.550781 2.640625 -0.90625 C 2.273438 -1.257812 1.992188 -1.703125 1.796875 -2.234375 C 1.597656 -2.773438 1.5 -3.394531 1.5 -4.09375 L 1.5 -11.140625 C 1.5 -11.191406 1.507812 -11.234375 1.53125 -11.265625 C 1.550781 -11.304688 1.585938 -11.332031 1.640625 -11.34375 C 1.703125 -11.363281 1.78125 -11.378906 1.875 -11.390625 C 1.96875 -11.410156 2.09375 -11.421875 2.25 -11.421875 C 2.394531 -11.421875 2.515625 -11.410156 2.609375 -11.390625 C 2.710938 -11.378906 2.789062 -11.363281 2.84375 -11.34375 C 2.894531 -11.332031 2.929688 -11.304688 2.953125 -11.265625 C 2.984375 -11.234375 3 -11.191406 3 -11.140625 L 3 -4.265625 C 3 -3.742188 3.0625 -3.285156 3.1875 -2.890625 C 3.320312 -2.492188 3.507812 -2.164062 3.75 -1.90625 C 3.988281 -1.644531 4.28125 -1.445312 4.625 -1.3125 C 4.96875 -1.1875 5.351562 -1.125 5.78125 -1.125 C 6.21875 -1.125 6.609375 -1.1875 6.953125 -1.3125 C 7.296875 -1.445312 7.585938 -1.640625 7.828125 -1.890625 C 8.066406 -2.148438 8.25 -2.46875 8.375 -2.84375 C 8.5 -3.226562 8.5625 -3.675781 8.5625 -4.1875 L 8.5625 -11.140625 C 8.5625 -11.191406 8.570312 -11.234375 8.59375 -11.265625 C 8.613281 -11.304688 8.65625 -11.332031 8.71875 -11.34375 C 8.78125 -11.363281 8.859375 -11.378906 8.953125 -11.390625 C 9.046875 -11.410156 9.164062 -11.421875 9.3125 -11.421875 C 9.457031 -11.421875 9.578125 -11.410156 9.671875 -11.390625 C 9.765625 -11.378906 9.835938 -11.363281 9.890625 -11.34375 C 9.953125 -11.332031 9.992188 -11.304688 10.015625 -11.265625 C 10.046875 -11.234375 10.0625 -11.191406 10.0625 -11.140625 Z M 10.0625 -4.203125 "/>
</symbol>
<symbol overflow="visible" id="glyph2-5">
<path style="stroke:none;" d="M 8.5 -5.71875 C 8.5 -4.84375 8.429688 -4.039062 8.296875 -3.3125 C 8.160156 -2.59375 7.929688 -1.972656 7.609375 -1.453125 C 7.285156 -0.941406 6.863281 -0.539062 6.34375 -0.25 C 5.832031 0.03125 5.203125 0.171875 4.453125 0.171875 C 3.734375 0.171875 3.128906 0.046875 2.640625 -0.203125 C 2.148438 -0.460938 1.753906 -0.835938 1.453125 -1.328125 C 1.160156 -1.828125 0.953125 -2.4375 0.828125 -3.15625 C 0.703125 -3.882812 0.640625 -4.71875 0.640625 -5.65625 C 0.640625 -6.53125 0.707031 -7.328125 0.84375 -8.046875 C 0.988281 -8.765625 1.21875 -9.382812 1.53125 -9.90625 C 1.84375 -10.425781 2.253906 -10.828125 2.765625 -11.109375 C 3.285156 -11.398438 3.921875 -11.546875 4.671875 -11.546875 C 5.390625 -11.546875 5.992188 -11.414062 6.484375 -11.15625 C 6.972656 -10.90625 7.367188 -10.53125 7.671875 -10.03125 C 7.972656 -9.539062 8.1875 -8.929688 8.3125 -8.203125 C 8.4375 -7.484375 8.5 -6.65625 8.5 -5.71875 Z M 6.953125 -5.609375 C 6.953125 -6.171875 6.929688 -6.675781 6.890625 -7.125 C 6.847656 -7.582031 6.785156 -7.984375 6.703125 -8.328125 C 6.628906 -8.671875 6.53125 -8.96875 6.40625 -9.21875 C 6.28125 -9.46875 6.128906 -9.671875 5.953125 -9.828125 C 5.773438 -9.992188 5.570312 -10.113281 5.34375 -10.1875 C 5.125 -10.257812 4.875 -10.296875 4.59375 -10.296875 C 4.09375 -10.296875 3.6875 -10.175781 3.375 -9.9375 C 3.0625 -9.707031 2.816406 -9.390625 2.640625 -8.984375 C 2.460938 -8.578125 2.34375 -8.097656 2.28125 -7.546875 C 2.21875 -6.992188 2.1875 -6.398438 2.1875 -5.765625 C 2.1875 -4.910156 2.226562 -4.1875 2.3125 -3.59375 C 2.394531 -3 2.53125 -2.515625 2.71875 -2.140625 C 2.914062 -1.765625 3.160156 -1.492188 3.453125 -1.328125 C 3.753906 -1.160156 4.113281 -1.078125 4.53125 -1.078125 C 4.863281 -1.078125 5.15625 -1.128906 5.40625 -1.234375 C 5.65625 -1.335938 5.867188 -1.488281 6.046875 -1.6875 C 6.222656 -1.882812 6.367188 -2.117188 6.484375 -2.390625 C 6.597656 -2.660156 6.691406 -2.960938 6.765625 -3.296875 C 6.835938 -3.640625 6.882812 -4.003906 6.90625 -4.390625 C 6.9375 -4.773438 6.953125 -5.179688 6.953125 -5.609375 Z M 6.953125 -5.609375 "/>
</symbol>
<symbol overflow="visible" id="glyph2-6">
<path style="stroke:none;" d="M 8.140625 -0.59375 C 8.140625 -0.488281 8.128906 -0.394531 8.109375 -0.3125 C 8.097656 -0.238281 8.078125 -0.175781 8.046875 -0.125 C 8.015625 -0.0820312 7.976562 -0.0507812 7.9375 -0.03125 C 7.90625 -0.0078125 7.867188 0 7.828125 0 L 1.890625 0 C 1.847656 0 1.804688 -0.0078125 1.765625 -0.03125 C 1.734375 -0.0507812 1.703125 -0.0820312 1.671875 -0.125 C 1.640625 -0.175781 1.613281 -0.238281 1.59375 -0.3125 C 1.582031 -0.394531 1.578125 -0.488281 1.578125 -0.59375 C 1.578125 -0.695312 1.582031 -0.785156 1.59375 -0.859375 C 1.613281 -0.941406 1.632812 -1.007812 1.65625 -1.0625 C 1.6875 -1.113281 1.71875 -1.148438 1.75 -1.171875 C 1.789062 -1.203125 1.835938 -1.21875 1.890625 -1.21875 L 4.265625 -1.21875 L 4.265625 -9.859375 L 2.0625 -8.546875 C 1.957031 -8.492188 1.867188 -8.457031 1.796875 -8.4375 C 1.734375 -8.425781 1.679688 -8.441406 1.640625 -8.484375 C 1.597656 -8.523438 1.566406 -8.585938 1.546875 -8.671875 C 1.535156 -8.765625 1.53125 -8.878906 1.53125 -9.015625 C 1.53125 -9.109375 1.535156 -9.191406 1.546875 -9.265625 C 1.554688 -9.335938 1.566406 -9.394531 1.578125 -9.4375 C 1.597656 -9.488281 1.625 -9.53125 1.65625 -9.5625 C 1.6875 -9.59375 1.726562 -9.628906 1.78125 -9.671875 L 4.40625 -11.34375 C 4.425781 -11.363281 4.453125 -11.378906 4.484375 -11.390625 C 4.523438 -11.398438 4.570312 -11.410156 4.625 -11.421875 C 4.675781 -11.429688 4.734375 -11.4375 4.796875 -11.4375 C 4.867188 -11.445312 4.960938 -11.453125 5.078125 -11.453125 C 5.210938 -11.453125 5.328125 -11.445312 5.421875 -11.4375 C 5.515625 -11.425781 5.585938 -11.410156 5.640625 -11.390625 C 5.691406 -11.367188 5.726562 -11.34375 5.75 -11.3125 C 5.769531 -11.28125 5.78125 -11.242188 5.78125 -11.203125 L 5.78125 -1.21875 L 7.828125 -1.21875 C 7.878906 -1.21875 7.925781 -1.203125 7.96875 -1.171875 C 8.007812 -1.148438 8.039062 -1.113281 8.0625 -1.0625 C 8.09375 -1.007812 8.113281 -0.941406 8.125 -0.859375 C 8.132812 -0.785156 8.140625 -0.695312 8.140625 -0.59375 Z M 8.140625 -0.59375 "/>
</symbol>
</g>
</defs>
<g id="surface1">
<rect x="0" y="0" width="568" height="95" style="fill:rgb(100%,100%,100%);fill-opacity:1;stroke:none;"/>
<path style="fill:none;stroke-width:12700;stroke-linecap:butt;stroke-linejoin:miter;stroke:rgb(0%,0%,0%);stroke-opacity:1;stroke-miterlimit:8;" d="M 0 -0.00000000000727596 L 1993899.936195 -0.00000000000727596 L 1993899.936195 1181099.962205 L 0 1181099.962205 Z M 0 -0.00000000000727596 " transform="matrix(0.0000787402,0,0,0.0000787402,187.5,1.5)"/>
<g style="fill:rgb(0%,0%,0%);fill-opacity:1;">
  <use xlink:href="#glyph0-1" x="247.3594" y="44"/>
  <use xlink:href="#glyph0-2" x="265.3594" y="44"/>
</g>
<g style="fill:rgb(0%,0%,0%);fill-opacity:1;">
  <use xlink:href="#glyph1-1" x="259.3594" y="64"/>
</g>
<g style="fill:rgb(0%,0%,0%);fill-opacity:1;">
  <use xlink:href="#glyph2-1" x="37.70496" y="53"/>
  <use xlink:href="#glyph2-2" x="47.70576" y="53"/>
</g>
<g style="fill:rgb(0%,0%,0%);fill-opacity:1;">
  <use xlink:href="#glyph2-1" x="57.70656" y="53"/>
  <use xlink:href="#glyph2-2" x="67.70736" y="53"/>
</g>
<g style="fill:rgb(0%,0%,0%);fill-opacity:1;">
  <use xlink:href="#glyph2-3" x="77.70816" y="53"/>
</g>
<g style="fill:rgb(0%,0%,0%);fill-opacity:1;">
  <use xlink:href="#glyph2-4" x="88.71696" y="53"/>
</g>
<path style=" stroke:none;fill-rule:nonzero;fill:rgb(0%,0%,0%);fill-opacity:1;" d="M 109.5 46.875 L 181.996094 46.875 L 181.996094 48.125 L 109.5 48.125 Z M 181.996094 47.5 L 177.996094 42.5 L 187.996094 47.5 L 177.996094 52.5 Z M 181.996094 47.5 "/>
<path style=" stroke:none;fill-rule:nonzero;fill:rgb(0%,0%,0%);fill-opacity:1;" d="M 344.5 48.125 L 406.003906 48.125 L 406.003906 46.875 L 344.5 46.875 Z M 406.003906 47.5 L 402.003906 52.5 L 412.003906 47.5 L 402.003906 42.5 Z M 406.003906 47.5 "/>
<g style="fill:rgb(0%,0%,0%);fill-opacity:1;">
  <use xlink:href="#glyph2-5" x="418.4269" y="53"/>
  <use xlink:href="#glyph2-5" x="427.4269" y="53"/>
  <use xlink:href="#glyph2-5" x="436.4269" y="53"/>
  <use xlink:href="#glyph2-6" x="445.4269" y="53"/>
  <use xlink:href="#glyph2-5" x="454.4269" y="53"/>
  <use xlink:href="#glyph2-5" x="463.4269" y="53"/>
  <use xlink:href="#glyph2-5" x="472.4269" y="53"/>
  <use xlink:href="#glyph2-6" x="481.4269" y="53"/>
  <use xlink:href="#glyph2-6" x="490.4269" y="53"/>
  <use xlink:href="#glyph2-6" x="499.4269" y="53"/>
  <use xlink:href="#glyph2-6" x="508.4269" y="53"/>
  <use xlink:href="#glyph2-5" x="517.4269" y="53"/>
</g>
<g style="fill:rgb(0%,0%,0%);fill-opacity:1;">
  <use xlink:href="#glyph0-1" x="421.5233" y="25"/>
  <use xlink:href="#glyph0-2" x="439.5233" y="25"/>
  <use xlink:href="#glyph0-3" x="457.5233" y="25"/>
  <use xlink:href="#glyph0-2" x="475.5233" y="25"/>
  <use xlink:href="#glyph0-4" x="493.5233" y="25"/>
</g>
<g style="fill:rgb(0%,0%,0%);fill-opacity:1;">
  <use xlink:href="#glyph0-5" x="14.31827" y="25"/>
  <use xlink:href="#glyph0-6" x="32.31827" y="25"/>
  <use xlink:href="#glyph0-7" x="50.31827" y="25"/>
  <use xlink:href="#glyph0-3" x="68.31827" y="25"/>
  <use xlink:href="#glyph0-2" x="86.31827" y="25"/>
  <use xlink:href="#glyph0-4" x="104.31827" y="25"/>
</g>
</g>
</svg>
