<svg xml:lang="ja" lang="ja" xmlns="http://www.w3.org/2000/svg" viewBox="0 0 860 330" font-family="'Hiragino Sans','Hiragino Kaku Gothic ProN','Noto Sans JP','Noto Sans CJK JP','Yu Gothic','Meiryo',sans-serif">
<defs>
<pattern id="hred" patternUnits="userSpaceOnUse" width="7" height="7" patternTransform="rotate(45)">
  <rect width="7" height="7" fill="#fdeeec"/>
  <line x1="0" y1="0" x2="0" y2="7" stroke="#d7301f" stroke-width="1.1" stroke-opacity="0.55"/>
</pattern>
</defs>
<rect x="3" y="3" width="854" height="324" rx="14" fill="#fcfdfe" stroke="#d5dde4" stroke-width="1.5"/>
<rect x="22" y="18" width="64" height="28" rx="14" fill="#2166ac"/>
<text x="54.0" y="37" font-size="14" fill="#fff" text-anchor="middle" font-weight="bold" font-family="'Hiragino Sans','Hiragino Kaku Gothic ProN','Noto Sans JP','Noto Sans CJK JP','Yu Gothic','Meiryo',sans-serif">例2</text>
<text x="100" y="38" font-size="18" fill="#333" text-anchor="start" font-weight="bold" font-family="'Hiragino Sans','Hiragino Kaku Gothic ProN','Noto Sans JP','Noto Sans CJK JP','Yu Gothic','Meiryo',sans-serif">(−3) + 4</text>
<rect x="96.5" y="85" width="51" height="45" fill="url(#hred)"/>
<line x1="96.5" y1="85" x2="147.5" y2="85" stroke="#d7301f" stroke-width="1.4" stroke-dasharray="4 3"/>
<path d="M 96.5 130 L 96.5 230 Q 96.5 235 101.5 235 L 142.5 235 Q 147.5 235 147.5 230 L 147.5 130 Z" fill="#cfe4f7"/>
<line x1="96.5" y1="130" x2="147.5" y2="130" stroke="#2166ac" stroke-width="2.2"/>
<path d="M 95 85 L 95 230 Q 95 236.5 101.5 236.5 L 142.5 236.5 Q 149 236.5 149 230 L 149 85" fill="none" stroke="#333" stroke-width="2.4" stroke-opacity="1.0"/>
<line x1="95" y1="235" x2="104" y2="235" stroke="#666" stroke-width="1.1" stroke-opacity="1.0"/>
<line x1="95" y1="220" x2="100.5" y2="220" stroke="#666" stroke-width="1.1" stroke-opacity="1.0"/>
<line x1="95" y1="205" x2="100.5" y2="205" stroke="#666" stroke-width="1.1" stroke-opacity="1.0"/>
<line x1="95" y1="190" x2="100.5" y2="190" stroke="#666" stroke-width="1.1" stroke-opacity="1.0"/>
<line x1="95" y1="175" x2="100.5" y2="175" stroke="#666" stroke-width="1.1" stroke-opacity="1.0"/>
<line x1="95" y1="160" x2="104" y2="160" stroke="#666" stroke-width="1.1" stroke-opacity="1.0"/>
<line x1="95" y1="145" x2="100.5" y2="145" stroke="#666" stroke-width="1.1" stroke-opacity="1.0"/>
<line x1="95" y1="130" x2="100.5" y2="130" stroke="#666" stroke-width="1.1" stroke-opacity="1.0"/>
<line x1="95" y1="115" x2="100.5" y2="115" stroke="#666" stroke-width="1.1" stroke-opacity="1.0"/>
<line x1="95" y1="100" x2="100.5" y2="100" stroke="#666" stroke-width="1.1" stroke-opacity="1.0"/>
<line x1="95" y1="85" x2="104" y2="85" stroke="#666" stroke-width="1.1" stroke-opacity="1.0"/>
<text x="89" y="239" font-size="11" fill="#666" text-anchor="end" font-family="'Hiragino Sans','Hiragino Kaku Gothic ProN','Noto Sans JP','Noto Sans CJK JP','Yu Gothic','Meiryo',sans-serif">0</text>
<text x="89" y="164" font-size="11" fill="#666" text-anchor="end" font-family="'Hiragino Sans','Hiragino Kaku Gothic ProN','Noto Sans JP','Noto Sans CJK JP','Yu Gothic','Meiryo',sans-serif">5</text>
<text x="89" y="89" font-size="11" fill="#666" text-anchor="end" font-family="'Hiragino Sans','Hiragino Kaku Gothic ProN','Noto Sans JP','Noto Sans CJK JP','Yu Gothic','Meiryo',sans-serif">10</text>
<text x="122.0" y="61" font-size="19" fill="#d7301f" text-anchor="middle" font-weight="bold" font-family="'Hiragino Sans','Hiragino Kaku Gothic ProN','Noto Sans JP','Noto Sans CJK JP','Yu Gothic','Meiryo',sans-serif">−3</text>
<text x="122.0" y="263" font-size="12.5" fill="#666" text-anchor="middle" font-family="'Hiragino Sans','Hiragino Kaku Gothic ProN','Noto Sans JP','Noto Sans CJK JP','Yu Gothic','Meiryo',sans-serif">水位7</text>
<text x="175" y="169" font-size="28" fill="#333" text-anchor="middle" font-weight="bold" font-family="'Hiragino Sans','Hiragino Kaku Gothic ProN','Noto Sans JP','Noto Sans CJK JP','Yu Gothic','Meiryo',sans-serif">+</text>
<path d="M 202.5 175 L 202.5 230 Q 202.5 235 207.5 235 L 248.5 235 Q 253.5 235 253.5 230 L 253.5 175 Z" fill="#cfe4f7"/>
<line x1="202.5" y1="175" x2="253.5" y2="175" stroke="#2166ac" stroke-width="2.2"/>
<path d="M 201 85 L 201 230 Q 201 236.5 207.5 236.5 L 248.5 236.5 Q 255 236.5 255 230 L 255 85" fill="none" stroke="#333" stroke-width="2.4" stroke-opacity="1.0"/>
<line x1="201" y1="235" x2="210" y2="235" stroke="#666" stroke-width="1.1" stroke-opacity="1.0"/>
<line x1="201" y1="220" x2="206.5" y2="220" stroke="#666" stroke-width="1.1" stroke-opacity="1.0"/>
<line x1="201" y1="205" x2="206.5" y2="205" stroke="#666" stroke-width="1.1" stroke-opacity="1.0"/>
<line x1="201" y1="190" x2="206.5" y2="190" stroke="#666" stroke-width="1.1" stroke-opacity="1.0"/>
<line x1="201" y1="175" x2="206.5" y2="175" stroke="#666" stroke-width="1.1" stroke-opacity="1.0"/>
<line x1="201" y1="160" x2="210" y2="160" stroke="#666" stroke-width="1.1" stroke-opacity="1.0"/>
<line x1="201" y1="145" x2="206.5" y2="145" stroke="#666" stroke-width="1.1" stroke-opacity="1.0"/>
<line x1="201" y1="130" x2="206.5" y2="130" stroke="#666" stroke-width="1.1" stroke-opacity="1.0"/>
<line x1="201" y1="115" x2="206.5" y2="115" stroke="#666" stroke-width="1.1" stroke-opacity="1.0"/>
<line x1="201" y1="100" x2="206.5" y2="100" stroke="#666" stroke-width="1.1" stroke-opacity="1.0"/>
<line x1="201" y1="85" x2="210" y2="85" stroke="#666" stroke-width="1.1" stroke-opacity="1.0"/>
<text x="228.0" y="61" font-size="19" fill="#2166ac" text-anchor="middle" font-weight="bold" font-family="'Hiragino Sans','Hiragino Kaku Gothic ProN','Noto Sans JP','Noto Sans CJK JP','Yu Gothic','Meiryo',sans-serif">+4</text>
<text x="228.0" y="263" font-size="12.5" fill="#666" text-anchor="middle" font-family="'Hiragino Sans','Hiragino Kaku Gothic ProN','Noto Sans JP','Noto Sans CJK JP','Yu Gothic','Meiryo',sans-serif">水位4</text>
<text x="281" y="169" font-size="28" fill="#333" text-anchor="middle" font-weight="bold" font-family="'Hiragino Sans','Hiragino Kaku Gothic ProN','Noto Sans JP','Noto Sans CJK JP','Yu Gothic','Meiryo',sans-serif">=</text>
<path d="M 308.5 85 L 308.5 230 Q 308.5 235 313.5 235 L 354.5 235 Q 359.5 235 359.5 230 L 359.5 85 Z" fill="#dcebf7"/>
<line x1="308.5" y1="85" x2="359.5" y2="85" stroke="#7fa8c9" stroke-width="2.2"/>
<path d="M 307 85 L 307 230 Q 307 236.5 313.5 236.5 L 354.5 236.5 Q 361 236.5 361 230 L 361 85" fill="none" stroke="#333" stroke-width="2.4" stroke-opacity="0.35"/>
<path d="M 310 83 Q 305 81 303 89 Q 301.5 97 302.5 107" fill="none" stroke="#2166ac" stroke-width="3" stroke-opacity="0.75" stroke-linecap="round"/>
<path d="M 358 83 Q 363 81 365 89 Q 366.5 97 365.5 107" fill="none" stroke="#2166ac" stroke-width="3" stroke-opacity="0.75" stroke-linecap="round"/>
<path d="M 302.5 119 q -3.5 5 0 8 q 3.5 -3 0 -8 Z" fill="#2166ac" fill-opacity="0.75"/>
<path d="M 365.5 125 q -3.5 5 0 8 q 3.5 -3 0 -8 Z" fill="#2166ac" fill-opacity="0.75"/>
<path d="M 363.5 143 q -3 4.5 0 7 q 3 -2.5 0 -7 Z" fill="#2166ac" fill-opacity="0.55"/>
<line x1="307" y1="235" x2="316" y2="235" stroke="#666" stroke-width="1.1" stroke-opacity="0.35"/>
<line x1="307" y1="220" x2="312.5" y2="220" stroke="#666" stroke-width="1.1" stroke-opacity="0.35"/>
<line x1="307" y1="205" x2="312.5" y2="205" stroke="#666" stroke-width="1.1" stroke-opacity="0.35"/>
<line x1="307" y1="190" x2="312.5" y2="190" stroke="#666" stroke-width="1.1" stroke-opacity="0.35"/>
<line x1="307" y1="175" x2="312.5" y2="175" stroke="#666" stroke-width="1.1" stroke-opacity="0.35"/>
<line x1="307" y1="160" x2="316" y2="160" stroke="#666" stroke-width="1.1" stroke-opacity="0.35"/>
<line x1="307" y1="145" x2="312.5" y2="145" stroke="#666" stroke-width="1.1" stroke-opacity="0.35"/>
<line x1="307" y1="130" x2="312.5" y2="130" stroke="#666" stroke-width="1.1" stroke-opacity="0.35"/>
<line x1="307" y1="115" x2="312.5" y2="115" stroke="#666" stroke-width="1.1" stroke-opacity="0.35"/>
<line x1="307" y1="100" x2="312.5" y2="100" stroke="#666" stroke-width="1.1" stroke-opacity="0.35"/>
<line x1="307" y1="85" x2="316" y2="85" stroke="#666" stroke-width="1.1" stroke-opacity="0.35"/>
<text x="334.0" y="263" font-size="12.5" fill="#666" text-anchor="middle" font-family="'Hiragino Sans','Hiragino Kaku Gothic ProN','Noto Sans JP','Noto Sans CJK JP','Yu Gothic','Meiryo',sans-serif">満杯 → 捨てる</text>
<text x="334.0" y="61" font-size="14" fill="#666" text-anchor="middle" font-family="'Hiragino Sans','Hiragino Kaku Gothic ProN','Noto Sans JP','Noto Sans CJK JP','Yu Gothic','Meiryo',sans-serif">10</text>
<text x="387" y="169" font-size="22" fill="#666" text-anchor="middle" font-weight="bold" font-family="'Hiragino Sans','Hiragino Kaku Gothic ProN','Noto Sans JP','Noto Sans CJK JP','Yu Gothic','Meiryo',sans-serif">+</text>
<path d="M 414.5 220 L 414.5 230 Q 414.5 235 419.5 235 L 460.5 235 Q 465.5 235 465.5 230 L 465.5 220 Z" fill="#cfe4f7"/>
<line x1="414.5" y1="220" x2="465.5" y2="220" stroke="#2166ac" stroke-width="2.2"/>
<path d="M 413 85 L 413 230 Q 413 236.5 419.5 236.5 L 460.5 236.5 Q 467 236.5 467 230 L 467 85" fill="none" stroke="#333" stroke-width="2.4" stroke-opacity="1.0"/>
<line x1="413" y1="235" x2="422" y2="235" stroke="#666" stroke-width="1.1" stroke-opacity="1.0"/>
<line x1="413" y1="220" x2="418.5" y2="220" stroke="#666" stroke-width="1.1" stroke-opacity="1.0"/>
<line x1="413" y1="205" x2="418.5" y2="205" stroke="#666" stroke-width="1.1" stroke-opacity="1.0"/>
<line x1="413" y1="190" x2="418.5" y2="190" stroke="#666" stroke-width="1.1" stroke-opacity="1.0"/>
<line x1="413" y1="175" x2="418.5" y2="175" stroke="#666" stroke-width="1.1" stroke-opacity="1.0"/>
<line x1="413" y1="160" x2="422" y2="160" stroke="#666" stroke-width="1.1" stroke-opacity="1.0"/>
<line x1="413" y1="145" x2="418.5" y2="145" stroke="#666" stroke-width="1.1" stroke-opacity="1.0"/>
<line x1="413" y1="130" x2="418.5" y2="130" stroke="#666" stroke-width="1.1" stroke-opacity="1.0"/>
<line x1="413" y1="115" x2="418.5" y2="115" stroke="#666" stroke-width="1.1" stroke-opacity="1.0"/>
<line x1="413" y1="100" x2="418.5" y2="100" stroke="#666" stroke-width="1.1" stroke-opacity="1.0"/>
<line x1="413" y1="85" x2="422" y2="85" stroke="#666" stroke-width="1.1" stroke-opacity="1.0"/>
<text x="440.0" y="61" font-size="19" fill="#2166ac" text-anchor="middle" font-weight="bold" font-family="'Hiragino Sans','Hiragino Kaku Gothic ProN','Noto Sans JP','Noto Sans CJK JP','Yu Gothic','Meiryo',sans-serif">1</text>
<text x="440.0" y="263" font-size="12.5" fill="#666" text-anchor="middle" font-family="'Hiragino Sans','Hiragino Kaku Gothic ProN','Noto Sans JP','Noto Sans CJK JP','Yu Gothic','Meiryo',sans-serif">あふれた分1</text>
<rect x="708" y="103" width="118" height="86" rx="12" fill="#eaf2fa" stroke="#2166ac" stroke-width="2"/>
<text x="767" y="131" font-size="13" fill="#2166ac" text-anchor="middle" font-family="'Hiragino Sans','Hiragino Kaku Gothic ProN','Noto Sans JP','Noto Sans CJK JP','Yu Gothic','Meiryo',sans-serif">答え</text>
<text x="767" y="169" font-size="30" fill="#2166ac" text-anchor="middle" font-weight="bold" font-family="'Hiragino Sans','Hiragino Kaku Gothic ProN','Noto Sans JP','Noto Sans CJK JP','Yu Gothic','Meiryo',sans-serif">1</text>
<line x1="473" y1="146" x2="696" y2="146" stroke="#2166ac" stroke-width="2" marker-end="none"/>
<path d="M 696 140 L 706 146 L 696 152 Z" fill="#2166ac"/>
<rect x="22" y="279" width="816" height="32" rx="8" fill="#f2f5f8"/>
<text x="430.0" y="300" font-size="14.5" fill="#333" text-anchor="middle" font-family="'Hiragino Sans','Hiragino Kaku Gothic ProN','Noto Sans JP','Noto Sans CJK JP','Yu Gothic','Meiryo',sans-serif">7 + 4 = 11であふれる → あふれた分1を2本目に → 満杯の10は捨てる → 答え1</text>
</svg>