<?xml version="1.0" encoding="UTF-8"?>
<!DOCTYPE svg PUBLIC "-//W3C//DTD SVG 1.1//EN" "http://www.w3.org/Graphics/SVG/1.1/DTD/svg11.dtd">
<svg xml:lang="ja" lang="ja" xmlns="http://www.w3.org/2000/svg" xmlns:xlink="http://www.w3.org/1999/xlink" version="1.1" width="305px" height="147px" viewBox="-0.5 -0.5 305 147" content="&lt;mxfile host=&quot;Electron&quot; modified=&quot;2020-07-20T15:35:00.801Z&quot; agent=&quot;5.0 (Macintosh; Intel Mac OS X 10_15_6) AppleWebKit/537.36 (KHTML, like Gecko) draw.io/13.4.5 Chrome/83.0.4103.122 Electron/9.1.0 Safari/537.36&quot; version=&quot;13.4.5&quot; etag=&quot;X3_FAyEuwDkMdT8hb3zS&quot; type=&quot;device&quot;&gt;&lt;diagram id=&quot;cLMmbwJ4iAIJic0Gipw-&quot;&gt;7VlBc6MgFP41Xh0QRTw2abt72J3ZmR62PdJIIjtGMoY0pr9+QUFDNNt0k6Ztpr1UHrwnfN/j4xE9NJ5X30q6yH6KlOVeANLKQ9deEMCAROqftmwaS4JBY5iVPDWDOsMdf2bGaIeteMqWzkApRC75wjVORFGwiXRstCzF2h02Fbn71gWdsZ7hbkLzvvU3T2VmrBAnXcd3xmeZeTUJ4qZjTtvBjWGZ0VSsG1O9OHTjoXEphGye5tWY5Ro8i0uDwO2e3nZiJSvkIQ5B4/BE85VZm4fBo2f5WMqNXbNklYo4yuQ8VwaoHmnOZ4V6nqh3sVIZnlgpuULpynTMeZpq91HJlvyZPtahgGovBC9kzUE08qJrHWslxbLhWYeeikIa2qHCZGRmqeKzau9KYYufSjwm5kyWGzXEOiDgIwTjBIIwjGNsApgMRLFZ8brjExlTtsWkgRNQk0Gz9j0dyOrB4DyMORrCfHqJmKMA+ADAGOKwBj5yMA8T5GNEAA4jiGGQnI2AcIgAeokEhNgHyE10TPwIxyDBcRzCBOGzoR71Ud+FWzkoCdfgrTMu2d2CTnTPWp0iOywsF42uT3nFUo0dz/OxyEVZB0Kg/jsNhlHsE+JimPTFAvuoDxv2gyQJjocOf1LoYBj4kKAYQRSigNhk62BUqWg2P0DtMh1UOwBdYBE8Hta4j2KqznnTLERRb2OxKlINVL2JRSkzMRMFzX8IsTCQ/mFSbszO1XvaBZxVXN5vPT/oUH5kWteViVw3NrZRqKXcbze2vHSzc6tbnV96peubbvrKcss1AnX/tsTglmO9arcqEatywpxtK2k5Yxb9g/OgZDmV/MmNfgxlpEfZyfjpOHnYpuQFfjpKHmy8f/Czi/9LfB3AT/Kh+EkuUqlCEqvakbSnZvgaoToeVHvtcQuWySUWLE2VDoKERCAOsZVop2LcOjLOVrxA+EkTO0DETyILJyYuoMcdwSeAdQDFryN4V+JxX+Lh4Ylwco2HgxdYdolypGpEH0Il+EaR3AvsOX80gAOX1gsQoPc+WaMv/fmvEtOm47voDz4PaXtqfHB+AqzafxgG4qETIL3cE8D8ZFwfBB+lIu1fhd90F8C3laH2Fv4KiTxk55xJu4zrL52hXfIge3Nrs2WH+GaqxmuH+3Yah6XDZ715IwR9Eu37LlPXB2F7PYnIm9YHqtl9emtI6D5gopu/&lt;/diagram&gt;&lt;/mxfile&gt;"><defs><style xmlns="http://www.w3.org/1999/xhtml" type="text/css">.MathJax_Preview {color: #888}&#xa;#MathJax_Message {position: fixed; left: 1px; bottom: 2px; background-color: #E6E6E6; border: 1px solid #959595; margin: 0px; padding: 2px 8px; z-index: 102; color: black; font-size: 80%; width: auto; white-space: nowrap}&#xa;#MathJax_MSIE_Frame {position: absolute; top: 0; left: 0; width: 0px; z-index: 101; border: 0px; margin: 0px; padding: 0px}&#xa;.MathJax_Error {color: #CC0000; font-style: italic}&#xa;</style><style xmlns="http://www.w3.org/1999/xhtml" type="text/css">.MathJax_Hover_Frame {border-radius: .25em; -webkit-border-radius: .25em; -moz-border-radius: .25em; -khtml-border-radius: .25em; box-shadow: 0px 0px 15px #83A; -webkit-box-shadow: 0px 0px 15px #83A; -moz-box-shadow: 0px 0px 15px #83A; -khtml-box-shadow: 0px 0px 15px #83A; border: 1px solid #A6D ! important; display: inline-block; position: absolute}&#xa;.MathJax_Menu_Button .MathJax_Hover_Arrow {position: absolute; cursor: pointer; display: inline-block; border: 2px solid #AAA; border-radius: 4px; -webkit-border-radius: 4px; -moz-border-radius: 4px; -khtml-border-radius: 4px; font-family: 'Courier New',Courier; font-size: 9px; color: #F0F0F0}&#xa;.MathJax_Menu_Button .MathJax_Hover_Arrow span {display: block; background-color: #AAA; border: 1px solid; border-radius: 3px; line-height: 0; padding: 4px}&#xa;.MathJax_Hover_Arrow:hover {color: white!important; border: 2px solid #CCC!important}&#xa;.MathJax_Hover_Arrow:hover span {background-color: #CCC!important}&#xa;</style><style xmlns="http://www.w3.org/1999/xhtml" type="text/css">.MathJax_SVG_Display {text-align: center; margin: 1em 0em; position: relative; display: block!important; text-indent: 0; max-width: none; max-height: none; min-width: 0; min-height: 0; width: 100%}&#xa;.MathJax_SVG .MJX-monospace {font-family: monospace}&#xa;.MathJax_SVG .MJX-sans-serif {font-family: sans-serif}&#xa;#MathJax_SVG_Tooltip {background-color: InfoBackground; color: InfoText; border: 1px solid black; box-shadow: 2px 2px 5px #AAAAAA; -webkit-box-shadow: 2px 2px 5px #AAAAAA; -moz-box-shadow: 2px 2px 5px #AAAAAA; -khtml-box-shadow: 2px 2px 5px #AAAAAA; padding: 3px 4px; z-index: 401; position: absolute; left: 0; top: 0; width: auto; height: auto; display: none}&#xa;.MathJax_SVG {display: inline; font-style: normal; font-weight: normal; line-height: normal; font-size: 100%; font-size-adjust: none; text-indent: 0; text-align: left; text-transform: none; letter-spacing: normal; word-spacing: normal; word-wrap: normal; white-space: nowrap; float: none; direction: ltr; max-width: none; max-height: none; min-width: 0; min-height: 0; border: 0; padding: 0; margin: 0}&#xa;.MathJax_SVG * {transition: none; -webkit-transition: none; -moz-transition: none; -ms-transition: none; -o-transition: none}&#xa;.MathJax_SVG &gt; div {display: inline-block}&#xa;.mjx-svg-href {fill: blue; stroke: blue}&#xa;.MathJax_SVG_Processing {visibility: hidden; position: absolute; top: 0; left: 0; width: 0; height: 0; overflow: hidden; display: block!important}&#xa;.MathJax_SVG_Processed {display: none!important}&#xa;.MathJax_SVG_test {font-style: normal; font-weight: normal; font-size: 100%; font-size-adjust: none; text-indent: 0; text-transform: none; letter-spacing: normal; word-spacing: normal; overflow: hidden; height: 1px}&#xa;.MathJax_SVG_test.mjx-test-display {display: table!important}&#xa;.MathJax_SVG_test.mjx-test-inline {display: inline!important; margin-right: -1px}&#xa;.MathJax_SVG_test.mjx-test-default {display: block!important; clear: both}&#xa;.MathJax_SVG_ex_box {display: inline-block!important; position: absolute; overflow: hidden; min-height: 0; max-height: none; padding: 0; border: 0; margin: 0; width: 1px; height: 60ex}&#xa;.mjx-test-inline .MathJax_SVG_left_box {display: inline-block; width: 0; float: left}&#xa;.mjx-test-inline .MathJax_SVG_right_box {display: inline-block; width: 0; float: right}&#xa;.mjx-test-display .MathJax_SVG_right_box {display: table-cell!important; width: 10000em!important; min-width: 0; max-width: none; padding: 0; border: 0; margin: 0}&#xa;</style></defs><g><rect x="84.33" y="1" width="30" height="20" fill="none" stroke="none" pointer-events="all"/><g transform="translate(-0.5 -0.5)"><switch><foreignObject style="overflow: visible; text-align: left;" pointer-events="none" width="100%" height="100%" requiredFeatures="http://www.w3.org/TR/SVG11/feature#Extensibility"><div xmlns="http://www.w3.org/1999/xhtml" style="display: flex; align-items: unsafe center; justify-content: unsafe center; width: 1px; height: 1px; padding-top: 11px; margin-left: 99px;"><div style="box-sizing: border-box; font-size: 0; text-align: center; "><div style="display: inline-block; font-size: 12px; font-family: Helvetica; color: #000000; line-height: 1.2; pointer-events: all; white-space: nowrap; "><span class="MathJax_Preview" style=""></span><span class="MathJax_SVG" id="MathJax-Element-637-Frame" tabindex="0" style="font-size: 100%; display: inline-block;"><svg xmlns="http://www.w3.org/2000/svg" xmlns:xlink="http://www.w3.org/1999/xlink" width="0.998ex" height="2.243ex" viewBox="0 -826.5 429.5 965.9" role="img" focusable="false" style="vertical-align: -0.324ex;"><g stroke="currentColor" fill="currentColor" stroke-width="0" transform="matrix(1 0 0 -1 0 0)"><path stroke-width="1" d="M73 647Q73 657 77 670T89 683Q90 683 161 688T234 694Q246 694 246 685T212 542Q204 508 195 472T180 418L176 399Q176 396 182 402Q231 442 283 442Q345 442 383 396T422 280Q422 169 343 79T173 -11Q123 -11 82 27T40 150V159Q40 180 48 217T97 414Q147 611 147 623T109 637Q104 637 101 637H96Q86 637 83 637T76 640T73 647ZM336 325V331Q336 405 275 405Q258 405 240 397T207 376T181 352T163 330L157 322L136 236Q114 150 114 114Q114 66 138 42Q154 26 178 26Q211 26 245 58Q270 81 285 114T318 219Q336 291 336 325Z"/></g></svg></span><script type="math/asciimath" id="MathJax-Element-637">b</script></div></div></div></foreignObject><text x="99" y="15" fill="#000000" font-family="Helvetica" font-size="12px" text-anchor="middle">b</text></switch></g><rect x="274" y="124.64" width="30" height="20" fill="none" stroke="none" pointer-events="all"/><g transform="translate(-0.5 -0.5)"><switch><foreignObject style="overflow: visible; text-align: left;" pointer-events="none" width="100%" height="100%" requiredFeatures="http://www.w3.org/TR/SVG11/feature#Extensibility"><div xmlns="http://www.w3.org/1999/xhtml" style="display: flex; align-items: unsafe center; justify-content: unsafe center; width: 1px; height: 1px; padding-top: 135px; margin-left: 289px;"><div style="box-sizing: border-box; font-size: 0; text-align: center; "><div style="display: inline-block; font-size: 12px; font-family: Helvetica; color: #000000; line-height: 1.2; pointer-events: all; white-space: nowrap; "><span class="MathJax_Preview" style=""></span><span class="MathJax_SVG" id="MathJax-Element-638-Frame" tabindex="0" style="font-size: 100%; display: inline-block;"><svg xmlns="http://www.w3.org/2000/svg" xmlns:xlink="http://www.w3.org/1999/xlink" width="1.279ex" height="2.562ex" viewBox="0 -826.5 550.5 1103.3" role="img" focusable="false" style="vertical-align: -0.643ex;"><g stroke="currentColor" fill="currentColor" stroke-width="0" transform="matrix(1 0 0 -1 0 0)"><path stroke-width="1" d="M118 -162Q120 -162 124 -164T135 -167T147 -168Q160 -168 171 -155T187 -126Q197 -99 221 27T267 267T289 382V385H242Q195 385 192 387Q188 390 188 397L195 425Q197 430 203 430T250 431Q298 431 298 432Q298 434 307 482T319 540Q356 705 465 705Q502 703 526 683T550 630Q550 594 529 578T487 561Q443 561 443 603Q443 622 454 636T478 657L487 662Q471 668 457 668Q445 668 434 658T419 630Q412 601 403 552T387 469T380 433Q380 431 435 431Q480 431 487 430T498 424Q499 420 496 407T491 391Q489 386 482 386T428 385H372L349 263Q301 15 282 -47Q255 -132 212 -173Q175 -205 139 -205Q107 -205 81 -186T55 -132Q55 -95 76 -78T118 -61Q162 -61 162 -103Q162 -122 151 -136T127 -157L118 -162Z"/></g></svg></span><script type="math/asciimath" id="MathJax-Element-638">f</script></div></div></div></foreignObject><text x="289" y="138" fill="#000000" font-family="Helvetica" font-size="12px" text-anchor="middle">f</text></switch></g><rect x="0.03" y="-0.43" width="30" height="20" fill="none" stroke="none" pointer-events="all"/><g transform="translate(-0.5 -0.5)"><switch><foreignObject style="overflow: visible; text-align: left;" pointer-events="none" width="100%" height="100%" requiredFeatures="http://www.w3.org/TR/SVG11/feature#Extensibility"><div xmlns="http://www.w3.org/1999/xhtml" style="display: flex; align-items: unsafe center; justify-content: unsafe center; width: 1px; height: 1px; padding-top: 10px; margin-left: 15px;"><div style="box-sizing: border-box; font-size: 0; text-align: center; "><div style="display: inline-block; font-size: 12px; font-family: Helvetica; color: #000000; line-height: 1.2; pointer-events: all; white-space: nowrap; "><span class="MathJax_Preview" style=""></span><span class="MathJax_SVG" id="MathJax-Element-639-Frame" tabindex="0" style="font-size: 100%; display: inline-block;"><svg xmlns="http://www.w3.org/2000/svg" xmlns:xlink="http://www.w3.org/1999/xlink" width="1.23ex" height="1.605ex" viewBox="0 -551.6 529.5 691.1" role="img" focusable="false" style="vertical-align: -0.324ex;"><g stroke="currentColor" fill="currentColor" stroke-width="0" transform="matrix(1 0 0 -1 0 0)"><path stroke-width="1" d="M33 157Q33 258 109 349T280 441Q331 441 370 392Q386 422 416 422Q429 422 439 414T449 394Q449 381 412 234T374 68Q374 43 381 35T402 26Q411 27 422 35Q443 55 463 131Q469 151 473 152Q475 153 483 153H487Q506 153 506 144Q506 138 501 117T481 63T449 13Q436 0 417 -8Q409 -10 393 -10Q359 -10 336 5T306 36L300 51Q299 52 296 50Q294 48 292 46Q233 -10 172 -10Q117 -10 75 30T33 157ZM351 328Q351 334 346 350T323 385T277 405Q242 405 210 374T160 293Q131 214 119 129Q119 126 119 118T118 106Q118 61 136 44T179 26Q217 26 254 59T298 110Q300 114 325 217T351 328Z"/></g></svg></span><script type="math/asciimath" id="MathJax-Element-639">a</script></div></div></div></foreignObject><text x="15" y="13" fill="#000000" font-family="Helvetica" font-size="12px" text-anchor="middle">a</text></switch></g><ellipse cx="15.03" cy="24.15" rx="3.15" ry="3.1496" fill="#000000" stroke="#000000" pointer-events="all"/><ellipse cx="99.33" cy="24.72" rx="3.1496" ry="3.155" fill="#000000" stroke="#000000" pointer-events="all"/><path d="M 18.18 24.15 L 96.18 24.72" fill="none" stroke="#000000" stroke-miterlimit="10" pointer-events="stroke"/><path d="M 99.33 118.34 L 99.33 27.87" fill="none" stroke="#000000" stroke-miterlimit="10" pointer-events="stroke"/><ellipse cx="99.33" cy="121.49" rx="3.1496" ry="3.15" fill="#000000" stroke="#000000" pointer-events="all"/><rect x="84.33" y="124.64" width="30" height="20" fill="none" stroke="none" pointer-events="all"/><g transform="translate(-0.5 -0.5)"><switch><foreignObject style="overflow: visible; text-align: left;" pointer-events="none" width="100%" height="100%" requiredFeatures="http://www.w3.org/TR/SVG11/feature#Extensibility"><div xmlns="http://www.w3.org/1999/xhtml" style="display: flex; align-items: unsafe center; justify-content: unsafe center; width: 1px; height: 1px; padding-top: 135px; margin-left: 99px;"><div style="box-sizing: border-box; font-size: 0; text-align: center; "><div style="display: inline-block; font-size: 12px; font-family: Helvetica; color: #000000; line-height: 1.2; pointer-events: all; white-space: nowrap; "><span class="MathJax_Preview" style=""></span><span class="MathJax_SVG" id="MathJax-Element-640-Frame" tabindex="0" style="font-size: 100%; display: inline-block;"><svg xmlns="http://www.w3.org/2000/svg" xmlns:xlink="http://www.w3.org/1999/xlink" width="1.007ex" height="1.605ex" viewBox="0 -551.6 433.5 691.1" role="img" focusable="false" style="vertical-align: -0.324ex;"><g stroke="currentColor" fill="currentColor" stroke-width="0" transform="matrix(1 0 0 -1 0 0)"><path stroke-width="1" d="M34 159Q34 268 120 355T306 442Q362 442 394 418T427 355Q427 326 408 306T360 285Q341 285 330 295T319 325T330 359T352 380T366 386H367Q367 388 361 392T340 400T306 404Q276 404 249 390Q228 381 206 359Q162 315 142 235T121 119Q121 73 147 50Q169 26 205 26H209Q321 26 394 111Q403 121 406 121Q410 121 419 112T429 98T420 83T391 55T346 25T282 0T202 -11Q127 -11 81 37T34 159Z"/></g></svg></span><script type="math/asciimath" id="MathJax-Element-640">c</script></div></div></div></foreignObject><text x="99" y="138" fill="#000000" font-family="Helvetica" font-size="12px" text-anchor="middle">c</text></switch></g><ellipse cx="196.11" cy="24.71" rx="3.1496" ry="3.15" fill="#000000" stroke="#000000" pointer-events="all"/><path d="M 102.48 24.72 L 192.96 24.71" fill="none" stroke="#000000" stroke-miterlimit="10" pointer-events="stroke"/><rect x="181.11" y="1" width="30" height="20" fill="none" stroke="none" pointer-events="all"/><g transform="translate(-0.5 -0.5)"><switch><foreignObject style="overflow: visible; text-align: left;" pointer-events="none" width="100%" height="100%" requiredFeatures="http://www.w3.org/TR/SVG11/feature#Extensibility"><div xmlns="http://www.w3.org/1999/xhtml" style="display: flex; align-items: unsafe center; justify-content: unsafe center; width: 1px; height: 1px; padding-top: 11px; margin-left: 196px;"><div style="box-sizing: border-box; font-size: 0; text-align: center; "><div style="display: inline-block; font-size: 12px; font-family: Helvetica; color: #000000; line-height: 1.2; pointer-events: all; white-space: nowrap; "><span class="MathJax_Preview" style=""></span><span class="MathJax_SVG" id="MathJax-Element-641-Frame" tabindex="0" style="font-size: 100%; display: inline-block;"><svg xmlns="http://www.w3.org/2000/svg" xmlns:xlink="http://www.w3.org/1999/xlink" width="1.083ex" height="1.605ex" viewBox="0 -551.6 466.5 691.1" role="img" focusable="false" style="vertical-align: -0.324ex;"><g stroke="currentColor" fill="currentColor" stroke-width="0" transform="matrix(1 0 0 -1 0 0)"><path stroke-width="1" d="M39 168Q39 225 58 272T107 350T174 402T244 433T307 442H310Q355 442 388 420T421 355Q421 265 310 237Q261 224 176 223Q139 223 138 221Q138 219 132 186T125 128Q125 81 146 54T209 26T302 45T394 111Q403 121 406 121Q410 121 419 112T429 98T420 82T390 55T344 24T281 -1T205 -11Q126 -11 83 42T39 168ZM373 353Q367 405 305 405Q272 405 244 391T199 357T170 316T154 280T149 261Q149 260 169 260Q282 260 327 284T373 353Z"/></g></svg></span><script type="math/asciimath" id="MathJax-Element-641">e</script></div></div></div></foreignObject><text x="196" y="15" fill="#000000" font-family="Helvetica" font-size="12px" text-anchor="middle">e</text></switch></g><ellipse cx="196.11" cy="121.49" rx="3.1496" ry="3.15" fill="#000000" stroke="#000000" pointer-events="all"/><path d="M 102.48 121.49 L 192.96 121.49" fill="none" stroke="#000000" stroke-miterlimit="10" pointer-events="stroke"/><path d="M 196.11 27.86 L 196.11 118.34" fill="none" stroke="#000000" stroke-miterlimit="10" pointer-events="stroke"/><rect x="181.11" y="124.64" width="30" height="20" fill="none" stroke="none" pointer-events="all"/><g transform="translate(-0.5 -0.5)"><switch><foreignObject style="overflow: visible; text-align: left;" pointer-events="none" width="100%" height="100%" requiredFeatures="http://www.w3.org/TR/SVG11/feature#Extensibility"><div xmlns="http://www.w3.org/1999/xhtml" style="display: flex; align-items: unsafe center; justify-content: unsafe center; width: 1px; height: 1px; padding-top: 135px; margin-left: 196px;"><div style="box-sizing: border-box; font-size: 0; text-align: center; "><div style="display: inline-block; font-size: 12px; font-family: Helvetica; color: #000000; line-height: 1.2; pointer-events: all; white-space: nowrap; "><span class="MathJax_Preview" style=""></span><span class="MathJax_SVG" id="MathJax-Element-642-Frame" tabindex="0" style="font-size: 100%; display: inline-block;"><svg xmlns="http://www.w3.org/2000/svg" xmlns:xlink="http://www.w3.org/1999/xlink" width="1.216ex" height="2.243ex" viewBox="0 -826.5 523.5 965.9" role="img" focusable="false" style="vertical-align: -0.324ex;"><g stroke="currentColor" fill="currentColor" stroke-width="0" transform="matrix(1 0 0 -1 0 0)"><path stroke-width="1" d="M366 683Q367 683 438 688T511 694Q523 694 523 686Q523 679 450 384T375 83T374 68Q374 26 402 26Q411 27 422 35Q443 55 463 131Q469 151 473 152Q475 153 483 153H487H491Q506 153 506 145Q506 140 503 129Q490 79 473 48T445 8T417 -8Q409 -10 393 -10Q359 -10 336 5T306 36L300 51Q299 52 296 50Q294 48 292 46Q233 -10 172 -10Q117 -10 75 30T33 157Q33 205 53 255T101 341Q148 398 195 420T280 442Q336 442 364 400Q369 394 369 396Q370 400 396 505T424 616Q424 629 417 632T378 637H357Q351 643 351 645T353 664Q358 683 366 683ZM352 326Q329 405 277 405Q242 405 210 374T160 293Q131 214 119 129Q119 126 119 118T118 106Q118 61 136 44T179 26Q233 26 290 98L298 109L352 326Z"/></g></svg></span><script type="math/asciimath" id="MathJax-Element-642">d</script></div></div></div></foreignObject><text x="196" y="138" fill="#000000" font-family="Helvetica" font-size="12px" text-anchor="middle">d</text></switch></g><path d="M 285.85 121.49 L 199.26 121.49" fill="none" stroke="#000000" stroke-miterlimit="10" pointer-events="stroke"/><ellipse cx="289" cy="121.49" rx="3.1496" ry="3.15" fill="#000000" stroke="#000000" pointer-events="all"/></g><switch><g requiredFeatures="http://www.w3.org/TR/SVG11/feature#Extensibility"/><a transform="translate(0,-5)" xlink:href="https://desk.draw.io/support/solutions/articles/16000042487" target="_blank"><text text-anchor="middle" font-size="10px" x="50%" y="100%">Viewer does not support full SVG 1.1</text></a></switch></svg>